<svg width="200" height="51" viewBox="0 0 200 51" fill="none" xmlns="http://www.w3.org/2000/svg"><path d="M79.45 31.62c.23-.14.5-.21.84-.21.23 0 .44.03.62.08.19.05.36.11.54.2l.1-.84a2.66 2.66 0 0 0-1.25-.28c-.48 0-.91.1-1.3.3-.37.21-.66.5-.88.87-.21.38-.32.81-.32 1.31s.1.94.31 1.31c.2.37.5.66.87.87.37.2.8.3 1.3.3a2.85 2.85 0 0 0 1.27-.27l-.1-.84c-.19.09-.37.15-.56.2-.18.05-.39.08-.62.08-.33 0-.61-.07-.84-.21-.22-.15-.39-.34-.5-.59a2.02 2.02 0 0 1-.17-.85 2 2 0 0 1 .17-.85c.12-.24.29-.44.51-.58M83.62 30.67l-1.71 4.77h.85l.4-1.13h1.75l.4 1.13h.86l-1.72-4.77h-.83Zm-.19 2.87.6-1.7.61 1.7h-1.2ZM89.35 30.83a2.37 2.37 0 0 0-.94-.16H86.7v4.77h.88v-1.66h.85c.37 0 .67-.05.93-.16.25-.12.44-.29.57-.52.13-.24.2-.53.2-.9 0-.35-.07-.64-.2-.87-.13-.22-.33-.4-.58-.5Zm-.34 2.02c-.15.14-.38.2-.68.2h-.75V31.4h.73c.31 0 .54.06.7.2.15.13.22.34.22.62 0 .29-.07.5-.22.63ZM91.64 30.67h-.88v4.77h.88v-4.77ZM95.82 30.67h-3.6v.84h1.36v3.93h.88v-3.93h1.36v-.84ZM97.17 30.67l-1.71 4.77h.85l.4-1.13h1.75l.4 1.13h.86L98 30.67h-.83Zm-.19 2.87.6-1.7.61 1.7H97ZM101.13 30.67h-.88v4.77h2.86v-.77h-1.98v-4ZM108.32 30.95a2.58 2.58 0 0 0-1.23-.28h-1.8v4.77h1.8c.46 0 .87-.1 1.23-.28.36-.2.64-.47.84-.82.2-.36.3-.79.3-1.28 0-.5-.1-.93-.3-1.29a2.1 2.1 0 0 0-.84-.82Zm.03 2.96c-.1.25-.27.43-.47.56-.21.13-.47.2-.79.2h-.92v-3.23h.92c.32 0 .58.07.78.2.21.13.37.31.48.56.1.24.16.52.16.86 0 .33-.06.61-.16.85ZM111.14 33.37h1.7v-.84h-1.7v-1.02h2.19v-.84h-3.09v4.77h3.16v-.84h-2.26v-1.23ZM116.64 30.67h-.88v4.77h2.86v-.77h-1.98v-4ZM120.63 30.67l-1.72 4.77h.85l.4-1.13h1.76l.4 1.13h.85l-1.71-4.77h-.83Zm-.2 2.87.61-1.7.6 1.7h-1.2ZM124.9 31.51h1.36v3.93h.88v-3.93h1.36v-.84h-3.6v.84ZM132.27 32.95c.15-.2.23-.49.23-.84 0-.32-.07-.6-.21-.8a1.25 1.25 0 0 0-.58-.49c-.25-.1-.54-.15-.87-.15h-1.77v4.77h.88v-1.77h.9l.93 1.77h.98l-1.08-2c.24-.12.44-.29.59-.5Zm-.91-.23c-.14.15-.4.22-.76.22h-.64V31.4h.68c.34 0 .58.06.72.2.14.13.21.32.21.56 0 .23-.07.41-.21.56ZM134.79 30.67l-1.72 4.77h.86l.4-1.13h1.75l.4 1.13h.86l-1.72-4.77h-.83Zm-.19 2.87.6-1.7.6 1.7h-1.2ZM140.8 33.75l-2.06-3.08h-.87v4.77h.88v-3.27l2.2 3.27h.72v-4.77h-.88v3.08ZM145.29 32.98a4.84 4.84 0 0 0-.88-.36c-.2-.06-.38-.12-.52-.18a.95.95 0 0 1-.33-.2.45.45 0 0 1-.12-.33c0-.17.07-.3.2-.38.15-.08.35-.13.6-.13.26 0 .5.04.73.1.24.06.5.15.76.27l.1-.9a5.28 5.28 0 0 0-.69-.2c-.26-.07-.54-.1-.84-.1-.39 0-.71.06-.97.18a1.3 1.3 0 0 0-.59.48c-.13.2-.2.44-.2.7 0 .27.06.5.18.67.12.17.29.31.49.43.2.11.43.21.7.3l.63.24c.16.06.28.14.36.23.08.09.13.2.13.35 0 .18-.08.32-.22.41-.14.1-.33.14-.56.14-.2 0-.38-.02-.56-.06a4.02 4.02 0 0 1-1.04-.38l-.1.93a5.47 5.47 0 0 0 1.6.35c.4 0 .73-.05.97-.14.25-.09.44-.2.57-.35.12-.15.21-.3.25-.46.05-.16.07-.3.07-.44 0-.28-.06-.5-.18-.7-.12-.18-.3-.33-.54-.47ZM146.74 35.44h.88v-2.07h1.61v-.84h-1.6v-1.02h2.08v-.84h-2.97v4.77ZM153.56 30.88c-.36-.2-.77-.31-1.23-.31-.46 0-.87.1-1.22.3-.36.22-.64.5-.85.87-.2.38-.3.81-.3 1.31s.1.94.3 1.31c.21.37.49.66.85.87.36.2.76.3 1.22.3.46 0 .87-.1 1.23-.3.36-.2.64-.5.84-.87.2-.37.3-.8.3-1.3s-.1-.94-.3-1.32a2.2 2.2 0 0 0-.84-.86Zm.06 3.02c-.1.25-.27.44-.48.58-.22.14-.48.21-.8.21-.33 0-.6-.07-.81-.21a1.28 1.28 0 0 1-.49-.58 2.1 2.1 0 0 1-.16-.85c0-.31.06-.6.16-.84.11-.25.27-.44.49-.58.22-.14.48-.21.8-.21.33 0 .6.07.81.2.22.15.38.34.49.59.1.25.16.53.16.84 0 .32-.06.6-.16.85ZM158.67 32.95c.15-.2.23-.49.23-.84 0-.32-.07-.6-.21-.8a1.25 1.25 0 0 0-.58-.49c-.25-.1-.54-.15-.87-.15h-1.77v4.77h.88v-1.77h.9l.93 1.77h.98l-1.09-2c.25-.12.45-.29.6-.5Zm-.91-.23c-.14.15-.4.22-.76.22h-.64V31.4h.68c.34 0 .58.06.72.2.14.13.21.32.21.56 0 .23-.07.41-.21.56ZM163.35 30.67l-1.17 2.17-1.18-2.17h-.72l-.67 4.77h.92l.41-3.2 1.24 2.2 1.23-2.2.42 3.2h.91l-.67-4.77h-.72ZM166.85 30.67l-1.72 4.77h.86l.4-1.13h1.75l.4 1.13h.86l-1.72-4.77h-.83Zm-.19 2.87.6-1.7.61 1.7h-1.2ZM171.12 31.62c.23-.14.5-.21.84-.21.23 0 .44.03.62.08.19.05.37.11.54.2l.1-.84a2.67 2.67 0 0 0-1.25-.28c-.48 0-.91.1-1.29.3-.38.21-.67.5-.89.87-.21.38-.32.81-.32 1.31s.1.94.31 1.31c.21.37.5.66.87.87.38.2.8.3 1.3.3a2.85 2.85 0 0 0 1.27-.27l-.1-.84c-.19.09-.37.15-.55.2-.19.05-.4.08-.63.08-.33 0-.6-.07-.83-.21-.23-.15-.4-.34-.5-.59a2.02 2.02 0 0 1-.18-.85 2 2 0 0 1 .18-.85c.11-.24.28-.44.51-.58ZM174.84 30.67h-.88v4.77h.88v-4.77ZM178.66 29.14l-1.35.65v.47l1.35-.4v-.72ZM179.21 30.88c-.36-.2-.77-.31-1.23-.31a2.2 2.2 0 0 0-2.07 1.18c-.2.37-.3.8-.3 1.3s.1.94.3 1.31c.21.37.49.66.85.87.36.2.77.3 1.22.3a2.2 2.2 0 0 0 2.07-1.18c.2-.36.3-.8.3-1.3s-.1-.93-.3-1.3a2.2 2.2 0 0 0-.84-.87Zm.07 3.02c-.11.25-.28.44-.49.58-.22.14-.48.21-.8.21-.33 0-.6-.07-.81-.21a1.28 1.28 0 0 1-.49-.58c-.1-.25-.16-.53-.16-.85 0-.31.06-.6.16-.84.11-.25.28-.44.49-.58.22-.14.48-.21.8-.21.33 0 .6.07.81.2.22.15.38.34.49.59.1.25.16.53.16.84 0 .32-.06.6-.16.85ZM184.05 30.67v3.08l-2.06-3.08h-.87v4.77h.88v-3.27l2.2 3.27h.73v-4.77h-.88Z" fill="#B18C5B"/><path d="M80.67 18.86c.4-.25.89-.37 1.47-.37.4 0 .76.04 1.09.13.32.1.63.2.94.35l.17-1.47a4.46 4.46 0 0 0-2.18-.5c-.85 0-1.6.19-2.26.55-.66.37-1.18.87-1.55 1.53a4.58 4.58 0 0 0-.57 2.31c0 .88.18 1.65.55 2.31.36.66.87 1.16 1.52 1.53a5.05 5.05 0 0 0 4.49.05l-.17-1.47c-.33.14-.65.26-.97.35a4.1 4.1 0 0 1-1.1.13c-.57 0-1.06-.12-1.45-.37a2.3 2.3 0 0 1-.88-1.03c-.2-.44-.3-.94-.3-1.5s.1-1.06.3-1.5c.2-.44.5-.78.9-1.03ZM87.07 17.17h-1.54v8.43h1.54v-8.43ZM94.16 21.6c0 .4-.03.76-.08 1.1-.05.32-.15.6-.29.85-.14.23-.33.42-.59.55-.26.12-.59.19-1 .19-.4 0-.73-.06-.99-.2a1.38 1.38 0 0 1-.6-.54 2.44 2.44 0 0 1-.28-.86c-.05-.33-.08-.7-.08-1.1v-4.42h-1.54V22c0 .76.13 1.42.38 2 .25.56.64 1 1.15 1.3.52.32 1.17.48 1.97.48.79 0 1.44-.16 1.96-.47.51-.31.9-.75 1.15-1.32.25-.57.38-1.23.38-2v-4.8h-1.54v4.41ZM102.65 17.68a4.47 4.47 0 0 0-2.14-.5h-3.16v8.42h3.16c.8 0 1.52-.16 2.14-.5a3.67 3.67 0 0 0 1.48-1.44c.36-.63.53-1.39.53-2.27 0-.88-.17-1.64-.53-2.27a3.66 3.66 0 0 0-1.48-1.44Zm.05 5.23c-.19.42-.46.75-.83.98-.36.23-.82.34-1.36.34h-1.62v-5.68h1.62c.55 0 1 .11 1.36.34.37.23.64.56.83.98.19.43.28.93.28 1.52 0 .58-.1 1.1-.28 1.52ZM107.7 17.17l-3 8.43h1.5l.7-2h3.06l.7 2h1.5l-3-8.43h-1.46Zm-.33 5.09 1.06-3.01 1.06 3h-2.12ZM118.28 17.68a4.47 4.47 0 0 0-2.14-.5h-3.16v8.42h3.16c.8 0 1.51-.16 2.14-.5a3.66 3.66 0 0 0 1.48-1.44c.35-.63.53-1.39.53-2.27 0-.88-.18-1.64-.53-2.27a3.64 3.64 0 0 0-1.48-1.44Zm.05 5.23c-.19.42-.46.75-.83.98-.36.23-.82.34-1.36.34h-1.62v-5.68h1.62c.54 0 1 .11 1.36.34.37.23.64.56.83.98.19.43.28.93.28 1.52 0 .58-.1 1.1-.28 1.52ZM129.67 17.68a4.47 4.47 0 0 0-2.15-.5h-3.16v8.42h3.16c.8 0 1.52-.16 2.15-.5a3.67 3.67 0 0 0 1.47-1.44c.36-.63.54-1.39.54-2.27 0-.88-.18-1.64-.54-2.27a3.66 3.66 0 0 0-1.47-1.44Zm.05 5.23c-.19.42-.47.75-.83.98-.36.23-.82.34-1.37.34h-1.61v-5.68h1.61c.55 0 1 .11 1.37.34.37.23.64.56.83.98.18.43.27.93.27 1.52 0 .58-.09 1.1-.28 1.52ZM134.51 21.95h2.96v-1.49h-2.96v-1.8h3.82v-1.49h-5.4v8.43h5.52v-1.5h-3.94v-2.15ZM148.63 17.17l-2.05 3.84-2.06-3.84h-1.26l-1.17 8.43h1.6l.72-5.64 2.17 3.87 2.16-3.88.72 5.65h1.6l-1.16-8.43h-1.27ZM156.34 14.49l-2.37 1.14v.83l2.37-.7V14.5ZM153.91 21.95h2.96v-1.49h-2.96v-1.8h3.82v-1.49h-5.4v8.43h5.52v-1.5h-3.94v-2.15ZM165.81 17.17h-1.7l-1.95 2.87-1.94-2.87h-1.7l2.8 4.1-2.95 4.33h1.7l2.1-3.07 2.08 3.07h1.7l-2.94-4.32 2.8-4.1ZM168.3 17.17h-1.55v8.43h1.55v-8.43ZM172.44 18.86c.4-.25.9-.37 1.48-.37.4 0 .76.04 1.08.13.32.1.64.2.95.35l.17-1.47a4.46 4.46 0 0 0-2.19-.5c-.84 0-1.6.19-2.26.55-.66.37-1.17.87-1.55 1.53a4.58 4.58 0 0 0-.56 2.31c0 .88.18 1.65.54 2.31.37.66.88 1.16 1.53 1.53a5.05 5.05 0 0 0 4.49.05l-.17-1.47c-.33.14-.65.26-.97.35-.32.09-.69.13-1.1.13-.58 0-1.06-.12-1.45-.37a2.3 2.3 0 0 1-.89-1.03c-.2-.44-.3-.94-.3-1.5s.1-1.06.3-1.5c.21-.44.5-.78.9-1.03ZM184.41 19.08a3.88 3.88 0 0 0-1.47-1.53 4.2 4.2 0 0 0-2.15-.54c-.8 0-1.52.18-2.14.54-.63.36-1.12.87-1.48 1.53a4.76 4.76 0 0 0-.53 2.31c0 .88.17 1.65.53 2.3.36.66.85 1.17 1.48 1.54a4.2 4.2 0 0 0 2.14.54c.8 0 1.52-.18 2.15-.54a3.86 3.86 0 0 0 1.47-1.53c.36-.66.54-1.43.54-2.31 0-.88-.18-1.65-.54-2.31Zm-1.36 3.8c-.19.43-.47.78-.85 1.02a2.5 2.5 0 0 1-1.41.38 2.29 2.29 0 0 1-2.26-1.4 3.73 3.73 0 0 1-.28-1.5c0-.55.1-1.05.28-1.48.19-.44.47-.78.85-1.03a2.5 2.5 0 0 1 1.41-.37c.56 0 1.03.12 1.41.37.38.25.66.6.85 1.03.19.43.28.93.28 1.49 0 .56-.1 1.05-.28 1.49ZM30.97 11.62H3.74v18.16c0 9.96 13.6 12.97 13.6 12.97h.02s13.6-3 13.6-12.97V11.62Zm-.66.66v17.5c0 2.12-.67 4.08-1.99 5.81a15.2 15.2 0 0 1-4.46 3.82c-2.9 1.7-5.85 2.5-6.5 2.66-.66-.16-3.58-.94-6.48-2.64a15.2 15.2 0 0 1-4.48-3.82 9.47 9.47 0 0 1-2-5.83v-17.5h25.9Z" fill="#9F2149"/><path d="M20.65 17.43v-1.67h-1.71v1.56h-.67v-1.56H16.5v1.56h-.67v-1.56h-1.74v1.67l.85 1.47c.03.05.04.1.04.16L15 26.7h.82v-2.74c0-.65.73-1.24 1.54-1.24.8 0 1.54.59 1.54 1.24l.01 2.74h.85V19.06c0-.05 0-.11.04-.16l.86-1.47ZM14.32 26.88v-2.53l-.3.18a.33.33 0 0 1-.37-.01l-.37-.25v1.01c0 .1-.06.2-.14.26.04 0 .08.03.11.05.45.36.48.87.38 1.29h.7Z" fill="#9F2149"/><path d="M17.35 23.4c-.51 0-.87.36-.87.56v2.74h1.75v-2.74c0-.2-.37-.57-.88-.57Z" fill="#9F2149"/><path d="M7.15 26.88c-.1-.21-.17-.47-.22-.77a5.84 5.84 0 0 1-.06-1.04c0-.14.1-.26.23-.3l.73-.23-.82-.59a.34.34 0 0 1-.14-.27v-.93c0-.12.06-.24.18-.3l.32-.16v-.32l-.3-.12a.33.33 0 0 1-.2-.3v-1.12c0-.18.14-.33.32-.34h1.04c-.02-.28-.02-.65.04-.96.1-.42.33-.87.44-1.08l-.05-.38a.34.34 0 0 1 .33-.39h.55c.07 0 .13.02.18.06l1.37.86h.62c.1 0 .18.04.24.1.07.07.1.16.1.25L12 19.62c0 .1-.05.18-.11.23h.42c.09 0 .17.04.24.1l.19.2.14-.1.24-.51c.06-.12.18-.2.3-.2h.9v-.19l-.86-1.46a.34.34 0 0 1-.04-.16v-2.1c0-.18.15-.33.33-.33H21c.18 0 .33.15.33.33v2.1c0 .06-.01.11-.04.17l-.87 1.46v.19h.89c.12 0 .24.07.3.19l.24.5.14.12.2-.2c.06-.07.14-.1.23-.1h.42a.34.34 0 0 1-.1-.24l-.06-1.07c0-.1.04-.18.1-.25.06-.06.15-.1.24-.1h.63l1.36-.86a.33.33 0 0 1 .18-.06h.56a.33.33 0 0 1 .33.39l-.06.38c.12.2.36.66.44 1.08.07.3.07.68.05.96h1.03c.18 0 .33.16.33.34v1.12c0 .13-.08.26-.2.3l-.3.12v.32l.32.17c.11.05.18.17.18.3v.92c0 .11-.05.21-.14.28l-.83.58.73.23c.14.04.24.16.24.3 0 .03.02.51-.07 1.04-.04.3-.11.56-.21.77h1.23V13.94H5.93v12.94h1.22Z" fill="#9F2149"/><path d="M21.47 25.6a.32.32 0 0 1 .1-.06.33.33 0 0 1-.13-.27v-1l-.38.25a.34.34 0 0 1-.36.01l-.29-.17v2.52h.67c-.1-.42-.06-.93.39-1.29ZM25.92 33.8a.34.34 0 0 1-.34-.34v-2.19c0-.16-.1-.36-.25-.5a.92.92 0 0 0-.69-.28.88.88 0 0 0-.86.8v2.17c0 .1-.04.18-.1.24a.34.34 0 0 1-.24.1h-1.99a.33.33 0 0 1-.33-.34v-2.18c0-.17-.1-.37-.25-.52a.92.92 0 0 0-.69-.27.87.87 0 0 0-.58.24l1.64 8.34c2.3-1.02 5.03-2.68 6.5-5.27h-1.82ZM20.6 39.28l-2.3-11.73h-1.87l-2.3 11.73-.01.05c1.6.65 2.89.99 3.25 1.1.37-.12 1.65-.45 3.24-1.1a.46.46 0 0 1-.02-.05ZM15.13 30.71a.86.86 0 0 0-.57-.22h-.02a.93.93 0 0 0-.67.27.79.79 0 0 0-.25.52v2.18c0 .19-.15.34-.34.34H11.3a.34.34 0 0 1-.34-.34V31.3a.88.88 0 0 0-.86-.8h-.02a.93.93 0 0 0-.67.27.79.79 0 0 0-.25.52v2.18c0 .19-.15.34-.34.34H7.01c1.47 2.58 4.19 4.24 6.48 5.26l1.64-8.35Z" fill="#9F2149"/><path d="M28.8 27.55h-9.82l.48 2.46a1.6 1.6 0 0 1 1.88.28c.28.27.45.64.45.99v1.85h1.32V31.25c.07-.8.73-1.41 1.52-1.42.45-.01.86.15 1.17.46.28.27.45.64.45.99v1.85h1.83c.46-1 .73-2.13.73-3.4v-2.18h-.02ZM8.49 33.13v-1.85c0-.35.17-.72.45-1 .3-.3.72-.46 1.16-.46.8.02 1.45.63 1.53 1.43V33.13h1.32v-1.85c0-.35.16-.72.45-1a1.61 1.61 0 0 1 1.86-.28l.48-2.45H5.93v2.17c0 1.27.27 2.4.73 3.4H8.5ZM9.27 26.19h.55c.04.07.06.14.07.22l.01.14c0 .12-.02.23-.04.32h-1.9c-.28-.18-.42-.92-.43-1.54l.84-.26a.33.33 0 0 0 .23-.32v-.32a.34.34 0 0 0-.14-.27l-.92-.65v-.56l.32-.16a.33.33 0 0 0 .18-.3v-.75a.34.34 0 0 0-.21-.3l-.3-.13v-.55l.88-.01.42.68v.96l-.29.9c-.03.1-.01.21.05.3.07.08.17.14.27.14h.26c.16 0 .3-.12.33-.29.02-.15.1-.57.17-.77.06-.14.3-.47.45-.65.1-.12.1-.3 0-.43L8.9 20.27c-.02-.2-.06-.67.01-1.01.08-.36.33-.82.42-.97a.34.34 0 0 0 .05-.22l-.02-.12h.07l1.37.86c.05.03.11.05.17.05h.38l-.03.5-.43.16a.34.34 0 0 0-.23.32v.34c0 .19.16.33.34.33h1.15l.3.32c.11.12.3.13.44.03 0 0 .52-.41.55-.46l.18-.4h.67v1.23s-1.22.41-1.32.46c-.08.05-.12.42-.11.51.01.1 0 .13.14.23 0 0 .35.28.46.32l.36-.34.47.03v1.13l-.45.27-1.4-.96a.34.34 0 0 0-.46.07l-.22.28c-.1.13-.09.33.04.45l.8.75-.01.61-.8.36a.34.34 0 0 0-.2.3v.14c0 .2.14.34.33.34h.97c.17.2.1.5.03.69H10.7c-.08-.08-.12-.22-.14-.38v-.13c-.01-.2.02-.43.05-.55l.52-.67a.35.35 0 0 0 .07-.2l.01-.31a.33.33 0 0 0-.46-.33l-.84.35a.33.33 0 0 0-.2.26l-.05.33-.5.15a.34.34 0 0 0-.23.32v.13c0 .2.15.34.34.34M25.45 26.19h-.55a.58.58 0 0 0-.07.22l-.01.14c0 .12.02.23.04.32h1.9c.28-.18.41-.92.43-1.54l-.84-.26a.33.33 0 0 1-.23-.32v-.32c0-.1.05-.2.14-.27l.92-.65v-.56l-.32-.16a.33.33 0 0 1-.18-.3v-.75c0-.13.08-.25.21-.3l.3-.13v-.55l-.88-.01-.42.68v.96l.29.9c.03.1.01.21-.05.3a.35.35 0 0 1-.27.14h-.26a.34.34 0 0 1-.33-.29c-.02-.15-.1-.57-.18-.77-.05-.14-.29-.47-.44-.65a.34.34 0 0 1 0-.43l1.16-1.32c.02-.2.06-.67-.01-1.01a3.89 3.89 0 0 0-.42-.97.34.34 0 0 1-.05-.22l.02-.12h-.08l-1.36.86a.33.33 0 0 1-.18.05h-.37l.02.5.44.16c.13.05.22.18.22.32v.34c0 .19-.15.33-.33.33h-1.15l-.3.32a.34.34 0 0 1-.44.03s-.53-.41-.55-.46l-.18-.4h-.67v1.23s1.22.41 1.32.46c.08.05.12.42.11.51-.01.1 0 .13-.14.23 0 0-.36.28-.47.32l-.35-.34-.47.03v1.13l.45.27 1.4-.96c.15-.1.35-.07.46.07l.21.28c.11.13.1.33-.03.45l-.8.75v.61l.81.36c.12.05.2.17.2.3v.14c0 .2-.15.34-.34.34h-.97c-.16.2-.1.5-.03.69h2.24c.07-.08.11-.22.13-.38v-.13c.01-.2-.01-.43-.04-.55l-.52-.67a.34.34 0 0 1-.07-.2l-.02-.31a.33.33 0 0 1 .46-.33l.84.35c.11.04.2.14.2.26l.06.33.48.15c.14.04.24.17.24.32v.13c0 .2-.15.34-.33.34" fill="#9F2149"/><path d="M55.55 23.96c.05-.3.23-.56.45-.75.23-.2.5-.35.75-.5.35-.2.68-.41 1-.66.1-.08.19-.17.26-.27.07-.11.11-.23.15-.36l.07-.3c0-.02 0-.24.02-.25h.05c.21.03.43.01.64-.06-.05.24-.1.69-.07.93.03.34.2.66.13.99-.07.27-.3.48-.53.64-.73.5-1.62.76-2.51.82-.17.01-.37 0-.45-.15" fill="#B36047"/><path d="M49.92 37.35a.33.33 0 0 1-.44-.25c0-.05 0-.1-.02-.14a.43.43 0 0 0-.1-.15 1.5 1.5 0 0 0-.48-.36c-.06.2.01.44.16.62.14.18.35.3.56.4a.8.8 0 0 1-.9-.12.26.26 0 0 1-.07-.09c-.03-.04-.03-.1-.03-.14a1.5 1.5 0 0 0-.53-1.04c.12.22-.03.48.02.72.04.17.19.31.33.44a1.3 1.3 0 0 1-.48-.27.58.58 0 0 1-.2-.33c-.03-.14.04-.27.06-.4a.76.76 0 0 0-.18-.52 2.36 2.36 0 0 0-.4-.39c.03.18-.11.35-.08.53.01.12.1.22.17.31l.32.39c-.42-.11-.78-.46-.88-.87-.02-.07-.03-.15-.07-.21a.68.68 0 0 0-.16-.19.74.74 0 0 0-.26-.17c-.1-.02-.23 0-.28.08a.32.32 0 0 1-.15-.22c-.02.21.1.44.3.55l.23.1c.15.1.26.24.35.38l-.5-.1c-.07 0-.14-.02-.2-.06-.19-.1-.26-.32-.4-.48-.12-.13-.29-.8-.46-.8-.17-.02-.38.02-.47-.13.1.25.23.52.48.63.18.08.4.65.55.78-.18 0-.36-.58-.54-.59-.14 0-.28 0-.41-.04-.15-.04-.3-.12-.45-.15-.15-.04.14.23.25.19.12-.04.01.29.1.21.06-.04.17-.06.2 0-.17.26-.38.54-.29.48l.13.35c.04.1.08.21.16.3.17.17.46.15.69.1a.3.3 0 0 1-.33-.2l-.03-.17c-.04-.1-.14-.18-.23-.26-.09-.08-.17-.2-.15-.3a.36.36 0 0 1 .1-.16c.09-.12.24-.24.38-.16a.73.73 0 0 0 0 .73c.13.23.33.68.33.65-.01-.04-.04-.82.06-.81l.48.06a.44.44 0 0 0-.31.38.5.5 0 0 0 .22.45.36.36 0 0 1 .12-.35c.04-.03.1-.06.13-.1.06-.1 0-.26.1-.35.08-.08.24-.01.33.07.1.09.18.2.3.23a.53.53 0 0 0-.5.02.48.48 0 0 0-.22.41l.22-.1c.1.13.3.2.45.15.09-.03.17-.08.26-.1.13-.03.27.02.38.1.12.09.2.2.29.32a.88.88 0 0 0-.4-.16c-.15 0-.3.05-.36.17-.07.12-.03.3.1.37.04-.1.1-.2.2-.2.04 0 .08.03.12.04.17.06.34-.06.48-.17.05.17.23.25.4.3.3.08.6.1.91.08-.1.1-.25.14-.4.12-.06-.02-.13-.04-.2-.04-.17 0-.26.19-.32.35.08-.07.2-.06.3-.04.1.03.2.07.31.08.14.01.27-.04.37-.12.2-.16.47-.27.44-.52" fill="#708C51"/><path d="M49.37 36.29a2.51 2.51 0 0 0-.9-.61c-.13-.05-.26-.07-.4-.1a4.7 4.7 0 0 1-.76-.25 1.02 1.02 0 0 1-.22-.19 1.1 1.1 0 0 1-.2-.3c-.02-.07-.04-.14-.08-.2s-.1-.12-.18-.12c.13-.03.24-.1.33-.18-.02.05 0 .12.04.17l.15.28.1.19.18.15c.34.23.75.37 1.17.4-.06 0-.08-.09-.08-.15v-.37c-.04-.1-.15-.16-.25-.18-.1-.02-.22 0-.33 0a.47.47 0 0 1-.3-.1c.13.02.27-.05.33-.17-.01.02.01.04.03.05.1.05.22.06.33.1.1.03.21.09.26.19.05.1.03.22.04.33.02.2.34.32.53.4.02.17.01.29.2.66Z" fill="#CC4090"/><path d="m48.02 34.44.05-.04c.02-.02.02-.06 0-.1l-.06-.07c-.12-.1-.26-.2-.4-.29a.25.25 0 0 0-.13-.04c-.08 0-.14.07-.18.15-.1.17-.14.37-.12.57 0 .07.02.15.07.19.06.05.14.03.21.02.04 0 .07-.02.1-.03l.07-.05c.02-.02.05-.03.07-.07l.02-.03c.04-.04.2-.16.3-.21ZM46.99 33.93c-.04-.05-.1-.06-.16-.07-.1-.03-.2-.07-.28-.12-.05-.03-.1-.07-.16-.08-.12-.02-.24.09-.3.2-.05.13-.07.27-.11.4-.03.09-.08.17-.12.25-.06.07-.11.18-.05.25.04.05.12.05.17.02.06-.04.1-.09.14-.13.17-.17.37-.12.56-.21.14-.07.48-.32.3-.51Z" fill="#CC4090"/><path d="M47.28 34.48v.01h.01l.04.01h.03l.01-.02v-.05c-.04-.05-.09 0-.09.05ZM47.4 34.25l.01.01.04.01h.03l.01-.02v-.05c-.04-.05-.09 0-.09.05ZM47.68 34.32l.04.02h.03l.02-.02v-.05c-.04-.05-.1 0-.1.05ZM46.2 34.2v.01l.03.01h.04l.01-.02v-.05c-.04-.05-.1 0-.09.05ZM46.3 33.97h.01v.01a.1.1 0 0 0 .04.01h.03l.02-.02v-.05c-.04-.05-.1 0-.1.05ZM46.58 34.04h.01l.03.02.04-.01.01-.02V34c-.04-.06-.1 0-.09.05Z" fill="#fff"/><path d="M54.47 13.87a.18.18 0 0 0 .07-.06.2.2 0 0 0 .02-.09c0-.13-.62-2-.67-2.13-.07-.2-.2-.37-.28-.57-.07-.2-.2-.33-.25-.52-.1-.38-.1-.3-.06-.69.01-.1.23-.72.23-.72s.23-.39.39-.4a.51.51 0 0 1 .26-.08c.17 0 .22 0 .38-.04l.03-.01.02-.03c.14-.37.27-.34.37-.72.05-.18 0-.32.09-.48.08-.16.21-.38.32-.51a.65.65 0 0 1 .24-.2c.18-.07.5.06.62.2a.7.7 0 0 1 .12.58c-.04.2-.46.79-.52.84-.32.27-.63.18-.9.53a.32.32 0 0 0-.05.1v.09c.01.2.55.84.29 2.36-.02.23-.04 1.13-.1 1.45-.03.15-.16.87-.22 1.02l.14.09c.17.08.3.22.39.4.25-.27.5-.53.69-.85.17-.32.29-.7.54-.96a1 1 0 0 1 .7-.3c-.04-.21-.04-.48.06-.66a.23.23 0 0 1 .1-.1.1.1 0 0 1 .12.04c.05-.11.1-.21.17-.3a.37.37 0 0 0-.04.22.6.6 0 0 1 .2-.15l-.1.2a.48.48 0 0 0 .18-.08l-.17.28c.07.22-.04.5-.24.58.2.07.3.3.36.52.01-.2.2-.34.37-.29.03-.11.1-.21.2-.27 0 .11-.04.23-.1.32a.87.87 0 0 1 .22-.06c-.03.09-.1.17-.17.23h.14l.05.04c.03.05-.04.1-.08.1-.05 0-.1 0-.14.03-.02.04 0 .08-.01.12-.01.05-.06.09-.1.1a.53.53 0 0 1-.38.04c-.07.2-.1.43-.24.59-.18.22-.44.32-.7.42-.68.27-1.15.5-1.47.66.07.32-.03.65-.14.95l-.16.46c-.02.07-.05.14-.05.21l.01.16.1.52c0 .03.01.06.04.08.02.03.06.02.1.02.1 0-.03-.02.05.06.15-.4.29-.81.37-1.23.02-.15.04-.3.09-.44a.6.6 0 0 1 .25-.34c.1-.05.23-.06.34-.06a.36.36 0 0 1 .03-.26c.04-.09.1-.15.16-.2a.2.2 0 0 0 .06-.08.32.32 0 0 0 .02-.11c0-.11.02-.17.07-.26.03.06.06.07.08.14.03-.11.11-.15.22-.17-.06.09-.09.14-.08.25.07-.04.14-.05.2-.13a.47.47 0 0 1-.1.2l-.03.06c-.03.05-.03.11-.04.18-.03.24-.23.44-.45.44.07.05.14.1.18.18.05.1.06.25.03.37-.05.17-.2.24-.27.4-.09.2-.34.34-.47.5-.2.26-.26.43-.46.69.23.2.47.78.29 1.03 0 .01-.02.03-.03.02-.02 0 0-.03 0-.02.02.19-.18.3-.32.41l-.43.4-.28.27c-.1.1-.2.2-.27.31.65.27.63 1.02.65 1.22 0 .13-.03.26-.03.4s.04.3.02.44c0 .06-.02.12 0 .16.04.05.12.04.16 0 .04-.04.06-.1.07-.17.07-.27.13-.55.12-.84-.01-.16-.04-.33-.03-.5.01-.16.09-.33.23-.4.02 0 .05-.02.05-.04l-.01-.04-.13-.3c-.05-.12-.1-.27-.03-.38-.07 0-.12-.1-.15-.17v-.03c0-.04.05-.04.08-.02.04.02.07.06.1.04a.5.5 0 0 1 0-.27l.13.14a2 2 0 0 0 .02-.24l.13.26c.04-.07.09-.14.15-.2a.68.68 0 0 0 0 .28c0 .04.03.08.04.13.02.07.02.15.02.23-.01.18-.05.36-.1.53.22.1.33.39.33.65.01.32-.09.63-.25.89a3.33 3.33 0 0 1-.54.66l-.07.02c-.02 0 .02.01.03.03.15.18.14.47.03.68a1.3 1.3 0 0 1-.51.48l-.3.16c-.16.08-.32.14-.45.28.09.08.09.23.08.35a2.9 2.9 0 0 1-.17 1.07c-.17.03-.21.41-.39.4.01-.11-.2-.58-.27-.66l-.62-.7-.1-.14a.35.35 0 0 1-.02-.13.7.7 0 0 1 .29-.6l-.28-.37-.19-.27-.13-.24c-.1-.16-.26-.28-.32-.47-.05-.2-.05-.5.12-.6-.11-.08-.14-.07-.23-.17a.54.54 0 0 1-.15-.37c-.07-.01-.06-.14-.11-.2.06 0 .05.1.12.1-.04-.08 0-.16-.03-.25.07.04.05.08.12.12-.01-.09.03-.16.02-.25.04.08.02.15.06.23 0-.1.1-.2.17-.28.01.1-.03.19-.02.28 0 .05-.02.05 0 .08s.13.08.15.1c.14.12.09.3.07.5.1-.11.2-.16.36-.17-.1-.25-.21-.52-.21-.78 0-.08 0-.15.02-.21.03-.1.1-.2.16-.28.06-.08.14-.17.24-.2.14-.02.27.11.35.25.07.13.12.28.1.42-.04.17-.17.28-.26.42-.06.08-.1.2-.15.3a.5.5 0 0 1-.06.1s.25.2.27.36c-.01-.19.14-.37.3-.38 0-.09.03-.17.1-.24l-.02.26a.22.22 0 0 1 .15-.1l.03.01c.03.02.01.06-.01.09-.03.02-.06.02-.08.05.06-.03.13 0 .16.06a.27.27 0 0 1-.11.06c.06 0 .11.06.1.12l-.16-.01c0 .1-.06.18-.14.22-.08.04-.15.04-.24.05.1.13.1.33.1.5 0 .32-.02.64-.06.95.11-.05.24-.02.35.04.1.06.2.16.28.26.16-.09.24-.28.3-.47.04-.18.05-.38.13-.55.07-.18.2-.33.35-.42-.06-.02-.07-.1-.09-.18a1.14 1.14 0 0 0-.37-.51l-.42-.39a1.06 1.06 0 0 1-.22-.26c-.12-.22.04-.7.02-.7-.27-.42-.5-.84-.74-1.27-.05-.09-.1-.17-.13-.26-.05-.16-.05-.34-.05-.5-.17-.01-.33-.18-.34-.37a.3.3 0 0 1-.17-.3c.06.02.11.05.15.1-.01-.1 0-.2.03-.3.05.06.08.15.08.23.03-.04.02-.1.02-.14 0-.05.03-.1.08-.1.04 0 .06.06.06.1 0 .04-.02.09-.01.13.14.07.17.27.18.44-.02-.08.04-.17.11-.2a.47.47 0 0 1 .24-.04c.11 0 .24.03.31.13a.48.48 0 0 1 .4-.35.56.56 0 0 1 .1-.37c.04.07.04.16.02.24a.34.34 0 0 1 .14-.1c.01.05 0 .12-.05.15.03-.03.07-.05.1-.03.06.03.05.11.01.16-.04.04-.1.05-.15.06.01.09.03.2-.02.27-.08.14-.29.11-.42.2.05.02.08.1.1.16.05.23.1.46.13.7l.02.35c.01.13.04.26.06.38.02.06.05.13.1.13.13.05.18-.07.18-.07s.13-.79.16-1.18c.02-.17.03-.33.08-.49.05-.15.14-.3.28-.35.04-.01.08-.04.07-.07l-.02-.02-.66-.79-.25-.3v.02a3.15 3.15 0 0 1-.43-1.74l-.34-.35-.18-.21-.17-.21-.2-.22a2.4 2.4 0 0 1-.38-.6v-.03l.01.01a.85.85 0 0 1-.33-.08l-.09-.05c-.07-.02-.15 0-.22-.03l-.04-.04c-.02-.05.05-.08.1-.07a.29.29 0 0 1-.16-.13.25.25 0 0 1 .2-.01c-.02-.04-.07-.06-.1-.1-.03-.03-.04-.1 0-.12.04-.02.08.04.12.07.06.04.14 0 .21 0 .12.02.2.15.25.27a.54.54 0 0 0 .02-.17c0-.06-.03-.12-.09-.14-.04-.02-.1 0-.15-.01-.07-.02-.12-.1-.11-.19-.05.03-.11.02-.16-.02-.04-.03-.07-.09-.1-.14l.14.01a.38.38 0 0 1-.12-.22c.06-.01.12.01.16.07a1 1 0 0 1-.03-.28c.03-.03.08 0 .1.04.03.05.04.1.08.13l.1.04c.14.03.25.17.25.33.03-.07.38-.47.35-.33.05-.1.17-.15.27-.11a.63.63 0 0 1-.04-.35c.01-.1.07-.2.15-.2-.01-.06-.03-.12-.02-.19 0-.06.04-.12.1-.14l.02.17a.63.63 0 0 1 .1-.17c.02.06.02.14 0 .2a.57.57 0 0 1 .1-.09c.04.06.02.16-.04.2.01-.02.04 0 .05.01v.06c-.01.2-.04.43-.18.55.15.04.27.18.33.34.06.16.08.34.08.52 0 .17 0 .35.03.52.03.15.08.3.14.44l.12.3c.02.06.04.12.08.15" fill="#708C51"/><path d="M46.87 20.7a.7.7 0 0 1 .03-.33c.07-.16.23-.28.4-.33.16-.06.34-.07.51-.1.48-.06 1.69-.05 1.94.5-.34-.18-.54-.05-.68-.02-.2.05-.24.12-.2.33.01.11.05.22.05.34 0 .26-.15.5-.36.65a2 2 0 0 1-.7.31c-.13.04-.29.07-.4-.03-.1-.1-.11-.28-.24-.35L47 22.68c.15-.2.33-.4.53-.55l.1.14c-.47.21-.76.74-.71 1.25-.08.02-.16.08-.23.05.05-.45.1-.9.23-1.34.07-.22.26-.54.2-.78-.06-.26-.22-.46-.24-.75ZM63.43 23.12a.74.74 0 0 1 .08-.77l.1.15a1 1 0 0 1 .24-.4l.06.2c.04-.12.13-.22.2-.32l.04.2c.04-.11.16-.19.23-.3l.02.18c.08-.14.22-.24.36-.33-.01.16 0 .32-.11.46l.16.02c-.05.07-.09.14-.18.17.04.04.1.06.15.08a.51.51 0 0 1-.18.13c.05.04.11.07.17.07-.05.08-.1.14-.2.17.05.04.12.06.18.05l-.23.19v.02l.01.02.13.04c-.07.07-.12.14-.22.16.04.03.09.05.14.03-.1.08-.23.1-.36.12a.8.8 0 0 1-.42-.02c-.05-.03-.15-.05-.2-.14-.02-.04.39-.4.32-.41-.09-.02-.32.31-.39.32-.05.01-.06-.04-.1-.09Z" fill="#0E7433"/><path d="M53.41 26.92s1.02-4.18 6.48-4.3c1.21.81-.01 1.89-.24 1.83-5 .14-3.24 4.33-2.99 4.73.65 1.63.55.6.6.63 3.2 2.36 3.02 4.39 3.04 4.5.09.35-.74 2.24-.97 2.75-.18.4-1.3 2.98-1.68 3.59-.96 1.56-2.29 1.67-2.3 1.67-2.45-.36-3.83-2.33-3.83-2.33s-2.85-3.3-2.49-7.02c.2-1.68.63-2.9 1.15-3.78.4-.67.84-1.14 1.27-1.47 1.02-.79 1.96-.8 1.96-.8Z" fill="#E5173D"/><path d="M48.4 26.46s-1.39-.56-1.82-1.18c-.43-.63-.66-1.4-.66-1.4s-.47.64-.74.5c-.27-.13 1.65 1.7 1.47 1.93-.18.24-1.3.6-1.55.84s.22.78.42.6c.2-.18 1.24-.8 1.8-.72.58.09 2.71 1.94 2.71 1.94s.64-1.05 1.55-1.45l-3.18-1.06Z" fill="#C23D8E"/><path d="M45.12 24.22a1.4 1.4 0 0 1-1.2-.44c.08-.03.33 0 .41-.02-.2-.13-.46-.33-.59-.54.1 0 .34.06.43.06a4.3 4.3 0 0 1-.47-.43c.1 0 .32.04.42.06-.15-.1-.36-.44-.47-.57.08.01.32.18.4.19a2.97 2.97 0 0 1-.45-.8c.21.07.59.32.73.5.04-.06.06-.3.08-.37.08.08.18.33.18.47.07-.05.13-.27.17-.34.06.09.1.35.12.45.07-.05.17-.27.2-.35.08.1.11.33.1.5.08-.07.13-.29.15-.38a7.37 7.37 0 0 1 .2.53s.02 0 .03-.02c.04-.04.01-.24.04-.3.07.11.21.35.2.5.06-.04.07-.23.07-.3a1.48 1.48 0 0 1-.16 1.21c-.05.06-.1.17-.25.2-.06.02-.92-1.38-1.02-1.32-.01 0 .89 1.33.88 1.43-.01.08-.11.05-.2.08ZM44.72 30.69c.45.1.82.46.9.9l-.3-.03c.14.23.19.43.21.72l-.31-.13c.1.18.12.4.18.59a2.3 2.3 0 0 1-.34-.16c.12.18.07.4.12.6l-.24-.15c.08.24.03.53 0 .8-.2-.18-.42-.35-.47-.62a1.1 1.1 0 0 0-.22.19c-.04-.13-.1-.26 0-.41-.11.02-.2.06-.3.11a.8.8 0 0 1 .04-.37.61.61 0 0 0-.3.15c-.03-.15-.05-.28.04-.45a.54.54 0 0 0-.3.2c.02-.16.03-.5.03-.5v-.03h-.05c-.07.03-.15.07-.21.12 0-.15-.04-.29.06-.45a.32.32 0 0 0-.22.15c.02-.2.15-.4.28-.58.15-.2.31-.4.54-.5.1-.05.2-.15.38-.12.08.01.35 1.93.37 1.93.02 0-.26-1.85-.2-1.95.06-.09.2-.02.31-.01Z" fill="#0E7433"/><path d="M49.64 31.76c0 1-.83 1.83-1.85 1.83a1.84 1.84 0 0 1-1.85-1.83c0-1.01.83-1.84 1.85-1.84s1.85.83 1.85 1.84Z" fill="#F29495"/><path d="M62.32 36.88a.7.7 0 0 1-.12.25.48.48 0 0 1-.35.18c-.13.01-.25-.02-.38-.04-.33-.05-.85-.18-1.12.1.13-.2.36-.24.46-.46.07-.16.14-.33.17-.51.02-.1.03-.2.06-.28.07-.21.23-.37.41-.45.18-.07.37-.09.56-.08.1 0 .21 0 .26.1.05.1 0 .26.07.34l.43-.75c-.16.13-.33.24-.5.32l-.03-.13c.36-.07.7-.42.81-.84l.17.01c-.16.35-.31.7-.52 1.02-.1.16-.32.37-.35.56-.03.23.03.43-.03.66Z" fill="#0E7433"/><path d="M46.87 24.46c-.02-.05-.03-.1-.08-.15a.27.27 0 0 0-.13-.05l-.46-.08c.07-.04.12-.1.16-.17.14.08.3.12.47.1-.06-.22-.1-.32-.15-.54.09.02.14-.06.23-.05-.15 0 .65 2.31.69 2.44-.04.04-.16-.09-.21-.08a7.05 7.05 0 0 1-.52-1.42Z" fill="#168140"/><path d="M63.1 21.97a1.13 1.13 0 0 1-2.26 0c0-.62.51-1.12 1.14-1.12.62 0 1.13.5 1.13 1.12Z" fill="#F29495"/><path d="M62.44 21.97c0 .28-.24.5-.53.5a.51.51 0 0 1-.52-.5c0-.27.23-.5.52-.5.3 0 .53.23.53.5Z" fill="#E61A5E"/><path d="M51.08 23.28a17 17 0 0 1 .36-2.23c-.3-.09-.5-.43-.47-.78.06.12.19.16.3.24.09.06.18.18.15.3.08-.2.15-.46 0-.6-.03-.04-.09-.06-.14-.1-.14-.1-.18-.32-.11-.5.2.08.34.25.4.47.07.17.1.37.06.57.13-.13.15-.27.3-.3-.06.2-.08.47-.2.5l-.24.84c-.19.67-.37 1.4-.16 2.05h.08c.1-.47.54-.82.95-.74-.15 0-.27.15-.34.31s-.11.33-.22.46c-.1.13-.31.18-.4.04l-.19 1.43c-.04.34-.03.8-.17 1.11-.18-.24-.1-.76-.06-1.06.08-.65-.04-1.37.1-2Z" fill="#0E7433"/><path d="M47.19 28.11c.07-.05.05-.15.04-.24a.37.37 0 0 1 .12-.32c.09-.08.23-.1.33-.03l.15.16c.17.16.47.16.56.36.06.12 0 .28-.11.34-.14.08-.34.03-.44.15.15.07.36-.02.5.07.06.05.1.14.09.23 0 .08-.04.16-.08.24a.63.63 0 0 1-.14.22c-.07.05-.17.09-.25.06-.1-.04-.17-.13-.26-.12.05.1.1.22.05.32-.04.1-.17.15-.28.18-.11.02-.23.03-.34.03-.12 0-.26-.04-.29-.16-.03-.11.1-.22.11-.34a.53.53 0 0 1-.62.07.54.54 0 0 1-.24-.56c.02-.12.1-.23.22-.23.09 0 .18.06.25 0-.14-.08-.29-.19-.3-.35-.01-.18.17-.33.35-.4.13-.04.3-.06.38.05.04.06.04.13.07.2.03.06.12.1.17.06m.25.3a.36.36 0 0 0-.49.08.34.34 0 0 0 .09.48c.16.1.37.07.49-.08a.34.34 0 0 0-.09-.48Z" fill="#F8D000"/><path d="M58.34 16.72c.2.04.41.04.62-.02.22-.06.44-.24.66-.28h.08a7.92 7.92 0 0 1 .72.77c0-.06-.09-.17-.12-.22-.17-.3-.26-.4-.45-.62.03-.1.1-.23.04-.33a.42.42 0 0 0-.26-.19c-.15-.04-.31.01-.47.06 0-.06.03-.11.05-.17.08-.2.1-.4.1-.62v-.03c0-.01.32-.91.34-1.38v-.02l-.02-.01c-.06-.01-.13-.02-.17.01-.08.06-.05.26-.09.34l-.03-.15c-.08 0-.15.05-.2.11a.42.42 0 0 0-.04.23.79.79 0 0 0-.04-.14.19.19 0 0 0-.1.11c-.05.01-.06.07-.06.12v.27a.53.53 0 0 1-.04-.14.16.16 0 0 0-.09.1.33.33 0 0 0-.01.13c0 .1.02.22.05.33a.48.48 0 0 0-.12-.22.34.34 0 0 0-.03.43c-.04-.03-.1-.06-.14-.03-.03.03-.03.07 0 .1.01.03.04.05.08.07a.09.09 0 0 0-.1.06c-.02.04 0 .09.05.1a.14.14 0 0 0-.07-.03c-.02 0-.05.01-.05.04s.03.05.07.06c-.04 0-.09.03-.1.07-.01.04.02.09.07.08-.06.03-.05.19-.02.24-.03 0-.62-.15-1.02.06l-.23.07-.13.07-.1.07-.26.21c-.03.03-.06.06-.05.1 0 .02.03.04.05.04h.08c.09-.02.2-.14.3-.14-.09.06-.27.25-.27.28 0 .03 0 .06.03.07.03.03.09.01.13-.01.09-.05.18-.1.26-.19 0 .08-.29.33-.23.44l.02.01h.01a.4.4 0 0 0 .08-.06l.22-.2c-.02.06-.07.12-.1.18a.25.25 0 0 0 0 .2s0 .02.02.03l.05.02c.05 0 .04-.06.07-.09.03-.03.13-.46.14-.51.01-.06.13-.18.15-.23.07.05.48.3.67.34" fill="#116AB3"/><path d="M59.71 16.15c0-.04-.03-.1-.08-.12l-.07-.02-.18-.01c.03.04.03.1.06.15a.2.2 0 0 0 .14.12h.08c.03 0 .08 0 .08-.03l-.03-.09Z" fill="#fff"/><path d="M59.49 16.07a.12.12 0 0 0 0 .16c.06.05.13.04.18 0a.12.12 0 0 0-.01-.18.12.12 0 0 0-.17.02Z" fill="#E61A5E"/><path d="M47.9 25.03c-.01.07-.04.15 0 .2 0 .03.03.06.06.05.02 0 .04-.03.04-.06l-.02-.07c-.03-.11-.03-.23-.04-.34 0-.06-.02-.29-.1-.3-.03.18.08.34.06.52ZM48.47 24.98c-.01.07-.06.15 0 .22a.1.1 0 0 0 .1.04c.03 0 .05-.03.05-.06l-.02-.08c-.05-.11-.05-.23-.07-.35 0-.06-.03-.3-.15-.3-.05.17.13.35.1.53ZM48.06 25.45a.1.1 0 0 1-.1.1.1.1 0 0 1-.1-.1c0-.06.05-.1.1-.1s.1.05.1.1ZM48.6 25.38a.1.1 0 0 1-.1.1.1.1 0 0 1-.1-.1c0-.05.05-.1.1-.1.06 0 .1.05.1.1Z" fill="#396FB6"/><path d="M47.9 22.53c.05.27-.21.47-.35.7a1.5 1.5 0 0 0-.2.6c-.03.27-.04.54-.02.82.01.18.04.37.17.5.01.02.03.04.05.04.04 0 .07-.04.09-.08.07-.16.29-.45.21-.49-.08-.03.27.5.43.49.15 0 .1-.37.13-.44-.16.07.43.32.46.33.09 0 .12-.1.11-.18a4.5 4.5 0 0 0-.43-1.7 1.27 1.27 0 0 0-.65-.57" fill="#116AB3"/><path d="M49.23 23.55c.02.04.03.07.06.1h.04v-.04a.11.11 0 0 0-.03-.03l-.12-.13c-.02-.02-.1-.11-.13-.1.04.09.14.12.18.2ZM49.45 23.38c.02.03.03.08.07.1.01 0 .04 0 .05-.02.02-.01.02-.03 0-.04l-.03-.03c-.05-.03-.09-.08-.13-.13-.02-.02-.1-.11-.16-.08.04.08.16.11.2.2ZM49.43 23.68c.01.02 0 .05-.02.07-.02.01-.05 0-.07-.02a.04.04 0 0 1 .02-.06c.02-.02.05-.01.07.01ZM49.63 23.51c.02.02.01.05-.01.07a.05.05 0 0 1-.07-.02.04.04 0 0 1 .01-.06c.02-.02.05-.01.07.01Z" fill="#396FB6"/><path d="M48.15 22.51c.1.1.38.26.39.4 0 .1.05.2.1.29.07.12.15.24.24.35.06.07.13.14.22.16h.04c.02 0 .01-.03 0-.05-.01-.1 0-.27-.05-.26-.04 0 .26.13.32.09.07-.05-.07-.19-.08-.22-.04.07.28.01.3 0 .03-.01.01-.07-.01-.1-.2-.23-.43-.43-.7-.58-.14-.07-.62-.1-.77-.07" fill="#116AB3"/><path d="M64.08 24.32c0 .34-.29.62-.64.62a.63.63 0 0 1-.64-.62c0-.34.29-.6.64-.6.35 0 .64.26.64.6Z" fill="#E5173D"/><path d="M50.36 17.36c0-.05.02-.1.05-.13a.27.27 0 0 1 .2-.09.1.1 0 0 1 .05.02c.03.02.04.09.08.1.03.02.07-.01.1-.04l.1-.12a.09.09 0 0 1 .03-.03c.02 0 .04 0 .06.02.04.04.06.1.07.16l.03.23c0 .03 0 .07-.02.1-.04.08-.15.06-.19.14 0 .03-.01.07-.04.08-.02 0-.05-.03-.06-.06 0-.02-.01-.06-.04-.07-.02-.01-.05 0-.07.03l-.06.06c-.1.05-.1-.12-.12-.18-.03-.1-.16-.1-.17-.22Z" fill="#F1871A"/><path d="M51.2 17.56c.02-.06.01-.12.02-.19.01-.06.06-.12.11-.11.04 0 .07.05.1.05l.08-.02c.03 0 .06.03.08.06l.01.1v.19l-.04.02c-.05.03-.05.12-.1.16-.04.03-.09.03-.14.03h-.05c-.04.03-.04.1-.06.14a.24.24 0 0 0-.1-.14l-.14-.05c.02-.1.19-.13.23-.24ZM51.28 18.03l.04-.09c.01-.02.03-.05.06-.05h.02c.02 0 .02-.02.04-.03.01-.02.03-.01.05 0 .02.01.02.03.03.05 0 .02.01.03.03.04h.02a.1.1 0 0 1 .1.03c.03.03.04.08.01.11 0 .02-.02.03-.03.04-.01.03.01.06.01.1 0 .04-.03.07-.07.1l-.12.08-.05.02c-.04 0-.05-.07-.09-.1-.05-.04-.12.03-.18.01-.01-.07-.03-.1 0-.16.05-.05.1-.09.13-.15Z" fill="#F1871A"/><path d="M51.77 18c.02.05 0 .11.02.16.02.04.07.05.12.05.03-.05.04-.1.04-.16a.5.5 0 0 0 0-.16l-.03-.1c-.02-.03-.03-.06-.06-.08l-.08-.04c-.02 0-.04-.01-.07 0-.03 0-.05.02-.06.05-.05.05-.1.12-.03.17.06.04.13.02.15.1ZM50.25 17.88c.02-.02.06-.03.07-.07v-.02l.03-.02.12-.08c.01.04 0 .1-.02.13 0 .02-.02.03-.03.05 0 .04.02.07.03.1.02.04.02.08.02.12v.02h-.03c-.04 0-.08 0-.1-.05l-.01-.04-.02-.02c-.06-.02-.15-.06-.06-.12ZM50.69 17.78l.02-.03c.02-.02.05 0 .06.02l.02.07h.07c.02 0 .04.03.04.05l-.01.06-.03.07-.03.04-.04.02a.38.38 0 0 1-.14.03.5.5 0 0 0-.05.16l-.03-.07c-.01-.02-.03-.04-.05-.04 0-.08-.02-.23.03-.27l.04-.01.02-.04.08-.06Z" fill="#F1871A"/><path d="m50.88 18.08.03-.09a.13.13 0 0 1 .1-.09c.05 0 .1.02.12.06a.1.1 0 0 1 .02.08c0 .02-.02.03-.03.05a.22.22 0 0 1-.08.05l-.09.03-.03.03c-.04.02-.08 0-.12 0-.02 0-.01.05-.05.01-.05-.08.1-.08.13-.13ZM51.77 18.28h.15c.05 0 .1-.02.12-.07.09.08.1.23.04.33-.02.02-.04.05-.04.08 0 .04.04.07.05.1.03.07-.03.14-.04.21l.02.15c0 .1-.07.2-.16.23-.04 0-.08 0-.09-.05v-.06c.01-.07-.05-.13-.1-.15a.37.37 0 0 0-.2.02.65.65 0 0 0 .16-.22c.03-.08.02-.2-.03-.26-.06-.06-.17-.1-.09-.18.05-.07.13-.13.21-.13ZM50.26 17.72l.08-.01c.05-.02.1-.09.09-.15v-.02c-.02-.02-.05-.02-.07-.03-.04-.02-.05-.08-.08-.11-.04-.06-.13-.07-.19-.03-.06.04-.09.11-.1.19l.01.1c.01 0 .03.02.03.04.02.04 0 .24.07.2.02 0 .04-.08.05-.1a.19.19 0 0 1 .1-.08ZM49.75 17.96a.17.17 0 0 1 .06-.05.22.22 0 0 1 .18 0 .2.2 0 0 0-.05-.2l-.04-.06v-.03c0-.05-.05-.07-.1-.08l-.04.01c-.02.03 0 .08-.02.1h-.03a1.29 1.29 0 0 1-.16-.05.3.3 0 0 0 0 .17l-.1.01c-.03.02-.05.07-.04.1.02.02.05.04.04.07l-.01.02-.08.08c-.01.04-.01.09.02.1.02.01.05 0 .06.02.02.02.01.05.02.07h.03l.22.02c.05 0 .14.03.1-.05 0-.04-.05-.05-.07-.08a.18.18 0 0 1 .01-.17Z" fill="#F1871A"/><path d="M50.2 17.96c-.02 0-.04.02-.05.04l-.05.06h-.08c-.04-.02-.08-.01-.11.01-.03.03-.05.08-.03.12.03.06.1.05.13.1.02.04.02.08.04.1.02.03.04.03.07.03h.06c.06-.05.04-.1.12-.12.05-.01.07-.01.07-.08 0-.05-.03-.1-.07-.13l-.06-.06c-.01-.02-.01-.05-.04-.07ZM49.81 17.98c.02-.03.06-.04.09-.05h.08c.03 0 .05.02.06.05-.05.04-.12 0-.16.04-.02.03-.02.08-.06.07-.04-.01-.02-.09 0-.11ZM49.42 18.32h-.05c-.05.03-.07.11-.13.12-.03 0-.07-.02-.1 0a.09.09 0 0 0-.02.04c-.06.12-.07.26-.08.4 0 .06 0 .13.05.15.03.01.06 0 .08-.03a.11.11 0 0 0 0-.1l-.02-.03c0-.04.04-.05.07-.05.04 0 .09 0 .13.03.06.02.11.08.17.08.07 0 .12-.1.1-.17v-.02c0-.03.05 0 .07-.02.02-.04 0-.1-.03-.13-.03-.04-.06-.08-.05-.13 0-.06.06-.09.08-.13-.07-.03-.2 0-.27 0Z" fill="#F1871A"/><path d="M49.44 18.96c-.03-.01-.05-.04-.09-.05-.03-.01-.07-.02-.1 0-.05.06-.02.17-.07.23l-.08.07c-.04.04-.03.12 0 .17l.12.15.03.06c.03.02.06.03.09.02.03-.05 0-.11.02-.17.02-.07.08-.11.13-.14.06-.03.12-.06.15-.12.02-.03.03-.07.03-.1.02-.1-.01-.08-.07-.08a.3.3 0 0 1-.16-.04ZM49.6 19.31c-.05.01-.09.06-.11.1l-.07.13c-.03.04-.05.1-.02.14l.04.04c.06.07.01.22.08.3.02.02.06.03.1.04l.1.02h.06c.04 0 .07-.04.09-.08v-.14c0-.02 0-.04.02-.06.02-.03.06-.03.1-.05.07-.04.09-.14.1-.23v-.08c-.01-.03-.05-.06-.08-.08-.03-.02-.06-.05-.05-.1 0-.03-.15.09-.15.09-.07.02-.14-.06-.22-.04Z" fill="#F1871A"/><path d="M50.23 19.58c-.03.03.1.02.13-.08.03.02.03.07.02.12-.01.04-.03.08-.02.12.11.06.23.14.25.28 0 .04 0 .1-.03.13a.13.13 0 0 1-.05.03.35.35 0 0 1-.17.02h-.05c-.03 0-.04.01-.06.03a.26.26 0 0 1-.19.06.18.18 0 0 1-.15-.12c-.02-.06 0-.12 0-.18 0-.04.02-.1.04-.12l.08-.06c.06-.04.1-.13.1-.22M50.87 19.76c.03-.02.03-.06.05-.1a.27.27 0 0 1 .19-.16.3.3 0 0 1 .24.06c.05.05.1.1.17.12l-.26.07-.03.01-.02.05a.4.4 0 0 0 0 .1v.16c0 .05-.03.1-.07.12-.05 0-.09-.04-.13-.06a.22.22 0 0 0-.14-.03c-.04 0-.08.02-.12.01-.04 0-.08-.04-.1-.09a.36.36 0 0 1-.02-.15c0-.02 0-.05.02-.07.05-.07.15.01.21-.04" fill="#F1871A"/><path d="M51.4 19.46s-.02.02-.01.03l.01.01.09.04.03.02.02.04a1 1 0 0 1 .03.17h-.08c0 .06.07.09.12.07.06-.01.1-.06.13-.1a.65.65 0 0 0 .05-.53c-.05-.11-.14-.09-.24-.09-.08 0-.12.11-.11.17a.2.2 0 0 1-.04.17ZM50.66 19c.07-.03.14-.02.2-.02.03 0 .05 0 .07-.02.05-.03.06-.1.11-.13.03 0 .06 0 .09.02l.08.06c.04.03.08.03.13.03h.05l.02.04c.02.07 0 .14-.04.2-.02.03-.05.07-.04.11.01.03.03.06.02.08l-.02.04a.12.12 0 0 1-.13 0l-.06-.03c-.04 0-.06.07-.1.1-.04.05-.13 0-.19.06l-.04.08a.12.12 0 0 1-.1.06c-.03 0-.06 0-.08.02l-.02.05-.06.03c-.04 0-.09 0-.1-.04a.1.1 0 0 1-.01-.08c0-.03.02-.05.03-.08.07-.19-.04-.5.19-.58ZM51.35 18.67a.5.5 0 0 0 0-.16v-.04c0-.03.03-.04.06-.04.02 0 .04.02.06.04l.04.07a.2.2 0 0 0 .09.06l.04.03v.04c0 .04.04.07.03.1 0 .02-.01.03-.02.03l-.1.13c-.01.02-.02.03-.04.03s-.04-.03-.06-.04c-.02-.02-.06 0-.08-.02l-.04-.05-.05-.01c-.05-.02 0-.05.02-.07a.18.18 0 0 0 .05-.1ZM49.7 18.48c0 .04.02.07.04.1l.05.1c0 .03 0 .07-.03.09l-.07.01c-.04.01-.05.06-.05.1.01.04.04.08.07.1.04.02.09.03.13.02.06-.01.11-.06.17-.09l-.02-.15c0-.05-.01-.12.02-.16l.02-.04c.01-.03 0-.06-.02-.09a.13.13 0 0 0-.03-.03l-.04-.01-.1-.07c-.07-.05-.15.03-.14.12Z" fill="#F1871A"/><path d="M50.47 18.8c-.03 0-.06 0-.08.02-.02.02-.02.07-.01.1s.04.05.06.07c.03.02.05.05.05.09.03 0 .06-.01.08-.04.01-.03.01-.07.03-.1.03-.04.07-.05.11-.05.05 0 .09.03.13.02.05 0 .1-.03.13-.09a.21.21 0 0 0 0-.18h-.02a.31.31 0 0 1-.07.09c-.03.02-.07.03-.1.01l-.07-.05c-.04-.03-.1-.02-.12.03-.03.05-.06.08-.12.09Z" fill="#F1871A"/><path d="M50.42 18.74c-.04.02-.1 0-.11-.03-.01-.03 0-.07.01-.1l.06-.06c.02-.03.04-.07.08-.08.03-.01.06.02.1 0 .01 0 .03 0 .04-.02.05-.04.12-.05.18-.03l.06.02a.2.2 0 0 0 .13 0c-.02.06-.01.13-.05.16-.03.02-.06.01-.08.03l-.03.03a.09.09 0 0 1-.12.02l-.06-.05c-.07-.03-.15.08-.2.1ZM50.2 18.47s-.02-.02-.01-.04a.18.18 0 0 1 .08-.03h.03l.02-.03a.1.1 0 0 1 .1-.05c.02 0 .05.02.05.05 0 .02-.01.04-.03.05-.02.03-.05.06-.08.07-.02 0-.03 0-.03.02h-.01c-.04.04-.09-.02-.12-.04Z" fill="#F1871A"/><path d="M50.07 18.6c-.01.01-.03.03-.03.06-.01.04.01.08.01.12v.11h.02c.05.02.1.02.14 0l.07-.07c.03-.03.07-.04.1-.02l-.07-.06c-.02-.03-.03-.06-.02-.09l.01-.02c0-.03-.03-.04-.05-.04l-.08-.05c-.02 0-.06-.03-.08-.02l-.02.07ZM50.1 18.96c-.03-.01-.06-.03-.1-.02-.03 0-.07.03-.07.07 0 .04.04.08.08.1.04 0 .08.01.11.04s.04.07.08.1c.02 0 .04 0 .06.02.05.01.09.06.13.1h.03l.03-.01c.02-.02.04-.04.04-.07 0-.04-.03-.07-.04-.11l.02-.12c.01-.08-.08-.15-.15-.16-.04-.01-.06.02-.09.04-.04.03-.07.03-.12.02ZM50.52 18.36a.05.05 0 0 1-.02-.05c0-.01 0-.03.02-.04l.05.01.05.03h.02c.02 0 .02-.04.05-.06h.02l.05.01v.05a1.9 1.9 0 0 0-.12.09c-.03.01-.1-.02-.12-.04ZM50.88 18.28h.04c.02 0 .03-.03.05-.05a.08.08 0 0 1 .1-.03l.02.03c.02.02 0 .06 0 .1.01.03.04.05.07.05l.08.02h.03v.04c0 .04-.03.08-.06.1a.14.14 0 0 1-.13.02.13.13 0 0 1-.08-.1v-.03a.04.04 0 0 0-.04-.03c-.03 0-.13.02-.15-.03-.02-.05.03-.1.07-.09ZM51 18.73v.02l.02.02h.05l.02-.02a.07.07 0 0 1 .09 0h.06c.03-.06.07-.11.07-.17-.04-.01-.08-.02-.12 0l-.05.02c-.03.01-.07-.02-.1.01l-.03.12ZM49.73 19.15l-.05.07v.02c.03.03.07.05.1.03l.03-.01a.12.12 0 0 1 .08-.02l.08.02h.02v-.01c.02-.03.01-.06-.01-.08-.03-.02-.06-.02-.08-.05-.01-.01 0-.04-.02-.06 0-.02-.03-.03-.05-.04l-.06.01c-.05 0-.02.08-.04.12Z" fill="#F1871A"/><path d="M50.06 19.29v.02l.02.02c.03.02.05.06.06.1.02.03.04.07.07.09l.09-.01.04-.02.05-.04.01-.01v-.05c-.01-.03-.04-.04-.07-.04h-.08c-.03 0-.06-.01-.07-.04l-.01-.05c-.02-.02-.04-.01-.06-.02a.07.07 0 0 1-.03-.02.14.14 0 0 0-.02.07Z" fill="#F1871A"/><path d="M55.54 6.65a.26.26 0 0 1-.18-.32l.02-.07c0-.11-.2-.15-.19-.26v-.02c.02-.02.05 0 .07 0l.15.1a2.2 2.2 0 0 1-.06-.3c.07.06.12.13.16.2a.72.72 0 0 1 .09-.24c.03.09.04.18.04.27.15.05.22.24.15.37l-.03.06c-.03.07.01.15-.03.21-.05.08-.13.02-.2 0Z" fill="#E5173D"/><path d="M46.73 37.5c.13.21.14.54.03.8a.74.74 0 0 1-.1-.12c-.02.17-.07.3-.16.46a1.97 1.97 0 0 1-.07-.18c-.02.13-.08.25-.12.38a1.26 1.26 0 0 1-.07-.2c-.02.13-.11.23-.16.36 0-.06-.02-.11-.03-.17-.05.16-.17.3-.26.43-.02-.16-.04-.33.03-.5-.04 0-.1.02-.14.04.03-.09.06-.18.13-.23a.28.28 0 0 0-.14-.03.65.65 0 0 1 .14-.19.21.21 0 0 0-.15-.02c.03-.1.07-.17.15-.23a.2.2 0 0 0-.16 0l.17-.25v-.02l-.01-.01a.34.34 0 0 0-.12-.01c.05-.09.08-.17.17-.22a.11.11 0 0 0-.12 0c.07-.1.18-.16.28-.21.12-.06.24-.11.36-.1.04.02.14 0 .19.09.02.03-.2.49-.2.49s.23-.34.24-.46c0-.06.08.06.12.1M49.59 39.7c.43-.01.9.25 1.15.64l-.28.03c.22.19.35.36.49.62-.1 0-.22-.02-.32-.05.16.15.26.34.4.5a2.2 2.2 0 0 1-.35-.06c.17.13.22.35.35.52l-.28-.08c.18.2.25.48.34.73-.24-.11-.5-.22-.66-.46a.8.8 0 0 0-.1.23c-.1-.12-.2-.22-.18-.38a.58.58 0 0 0-.2.17.91.91 0 0 1-.12-.35.43.43 0 0 0-.2.2c-.08-.13-.15-.24-.15-.42a.38.38 0 0 0-.17.25l-.18-.46s0-.02-.02-.03l-.04.01c-.05.05-.1.1-.13.16-.07-.14-.16-.26-.14-.42a.23.23 0 0 0-.12.18c-.07-.2-.04-.4 0-.6.03-.22.09-.44.24-.6.06-.05.14-.2.3-.2.08-.01.59.93.6.93.29 0-.52-.87-.5-.97 0-.1.17-.06.27-.09Z" fill="#B97414"/><path d="M41.71 28.78c-.03.14-.06.29-.13.42a.62.62 0 0 1-.3.3v-.15l-.01-.04c-.02-.02-.05 0-.07 0-.04 0-.07-.04-.07-.09 0-.04.04-.07.07-.1l.21-.25a.34.34 0 0 1 .14-.1c.05-.03.12-.02.15.03M41.1 29.05a.56.56 0 0 1-.22.1c-.05-.06.06-.17 0-.23l-.03-.02-.14-.07c.13-.11.33-.08.5-.14l.09-.02c.06 0 .11.06.17.04M41.3 28.63a.56.56 0 0 1-.32 0 .67.67 0 0 1-.4-.4h.15l.03-.03.01-.05c.01-.04.06-.06.1-.06.04 0 .08.02.11.04l.31.18c0 .04.06.04.03.11-.02.05-.06.11-.02.21ZM41.4 28.25c-.19-.13-.33-.31-.4-.52.07.05.19-.02.19-.1v-.04h.04a14.28 14.28 0 0 0 .19.14c.03.04.04.08.04.12l.03.2c-.01.08-.04.15-.1.19M41.6 28.16c.06.03.14-.01.15-.08v-.06l.02-.07.14-.38a.42.42 0 0 0-.16.07c0-.03-.04-.06-.08-.06-.03 0-.07.03-.1.05-.02.01-.05.03-.05.06v.08c.04.12-.03.27.05.37M41.68 28.66c.18.05.4-.03.5-.2l.01-.01c0-.02-.02-.04-.04-.05-.02 0-.05 0-.06-.02a.7.7 0 0 0 .17-.2c.03-.04.04-.11 0-.13l-.06-.01c-.14 0-.3.03-.38.15-.08.12-.03.29-.1.42M41.38 28.4c.05-.1.15-.13.22-.08.08.04.1.16.05.25-.05.1-.15.13-.23.08-.07-.05-.09-.16-.04-.25Z" fill="#E5173D"/><path d="m41.46 28.53.04.01v.04h-.05l.01-.05ZM41.56 28.42c.01-.01.04 0 .05.01 0 .02 0 .04-.02.05l-.05-.01c-.01-.02 0-.04.02-.05Z" fill="#E5173D"/><path d="M50.9 22.06a1 1 0 0 0-.56-.3l-.46-.07c-.2-.03-.39-.1-.53-.2.06.28.31.51.44.78.08.16.12.33.22.48.11.14.32.27.57.25.72-.06.52-.7.32-.94Z" fill="#0E7433"/><path d="M53.78 26.9a2.5 2.5 0 0 1-2.51 2.5 2.5 2.5 0 0 1-2.52-2.5 2.5 2.5 0 0 1 2.52-2.48 2.5 2.5 0 0 1 2.51 2.48Z" fill="#F29495"/><path d="M52.01 26.62c0 .37-.31.66-.7.66-.39 0-.7-.3-.7-.66 0-.36.31-.65.7-.65.39 0 .7.29.7.65Z" fill="#F7A732"/><path d="M52.12 26.79c0 .55-.44.99-.97.99a.98.98 0 0 1-.97-.99.98.98 0 0 1 1.13-.97c.46.07.8.48.8.97Z" fill="#E61A5E"/><path d="M51.02 25.04c0-.04.01-.09.04-.12s.08-.04.12-.04h.06c.03.03.03.06.04.09.04.3-.01.6-.07.9l-.08-.01-.02-.08c0-.08-.02-.16-.04-.25a2.6 2.6 0 0 1-.05-.49ZM50.67 25.09c0-.04 0-.1.02-.13.02-.04.07-.05.11-.06h.06c.03 0 .04.04.05.07.1.28.1.6.09.9h-.08c-.02-.01-.03-.05-.03-.07l-.09-.24a2.6 2.6 0 0 1-.13-.47ZM50.33 25.27c-.01-.04-.03-.09-.01-.13.01-.04.06-.07.1-.09l.06-.01c.03 0 .05.03.06.06.15.25.21.56.27.85 0 .01-.06.03-.08.02-.02 0-.03-.04-.04-.06l-.13-.2a2.6 2.6 0 0 1-.23-.44ZM50.04 25.5c-.02-.05-.04-.09-.03-.13 0-.05.04-.08.08-.1.02-.02.03-.03.05-.03.03 0 .06.02.08.04.19.23.3.5.4.79.01.01-.06.04-.07.04-.02 0-.04-.04-.05-.06l-.16-.18c-.11-.12-.22-.24-.3-.38ZM49.82 25.75c-.03-.03-.06-.07-.06-.11 0-.05.04-.09.07-.12l.04-.04c.03 0 .06.01.08.03.23.19.38.45.54.7l-.07.05c-.02 0-.05-.03-.06-.04l-.2-.15a2.5 2.5 0 0 1-.34-.32ZM49.63 26.1c-.04-.03-.07-.05-.08-.1-.01-.04.01-.1.04-.13 0-.02.02-.04.04-.05.02-.01.05 0 .08.01.26.13.47.35.67.56l-.06.06-.07-.02-.21-.1a2.35 2.35 0 0 1-.41-.23ZM49.5 26.58c-.05 0-.1-.02-.12-.05-.02-.04-.02-.1-.01-.14l.01-.06c.02-.03.06-.03.09-.03.28 0 .55.11.82.22l-.03.08c-.01.01-.05 0-.07 0h-.24c-.15.01-.3 0-.46-.02ZM49.52 26.93c-.04 0-.09 0-.12-.03-.03-.04-.04-.09-.04-.14l.01-.06c.02-.03.05-.04.08-.04.28-.05.56 0 .84.06.02 0 0 .08 0 .09l-.08.02-.23.04c-.15.04-.3.06-.46.06ZM49.63 27.32h-.12c-.04-.03-.05-.08-.07-.13v-.06c0-.03.04-.05.06-.06.27-.11.56-.13.84-.14.01 0 .02.07 0 .08 0 .02-.04.03-.06.04a9.68 9.68 0 0 1-.65.27ZM52.7 26.2c.03-.02.07-.04.09-.08.02-.04 0-.09-.01-.13l-.04-.05c-.02-.02-.05-.01-.08 0-.27.08-.51.26-.74.43l.04.07.07-.02.23-.06c.15-.04.3-.09.44-.16ZM52.75 26.54c.04-.02.08-.03.1-.07.03-.04.02-.09.01-.13a.1.1 0 0 0-.02-.06c-.02-.02-.05-.02-.08-.01-.28.03-.54.16-.8.29l.03.08h.07l.23-.03c.16-.01.31-.03.46-.07ZM52.73 26.93c.04 0 .09-.01.12-.04s.03-.09.03-.13v-.06c-.02-.03-.05-.03-.08-.04-.28-.03-.56.04-.84.1l.01.09.08.01.22.03c.16.03.3.04.46.04ZM52.66 27.29c.04 0 .08 0 .12-.02.03-.02.05-.07.06-.12a.1.1 0 0 0 0-.06c-.01-.03-.04-.04-.07-.05a2.43 2.43 0 0 0-.84-.06v.09c.01.02.05.02.07.03l.22.07c.14.05.29.1.44.12ZM52.53 27.6c.03.02.08.03.11 0 .04-.01.07-.06.08-.1a.1.1 0 0 0 .01-.06c0-.03-.03-.05-.05-.06a2.4 2.4 0 0 0-.81-.21c-.02 0-.03.07-.02.08 0 .02.04.03.06.04l.2.12c.13.07.27.15.42.2ZM52.3 27.92c.04.03.07.04.11.04.05-.01.08-.06.1-.1a.11.11 0 0 0 .03-.05c0-.03-.02-.05-.04-.07-.21-.19-.48-.3-.74-.4l-.04.08c0 .02.04.04.05.06l.17.15c.11.1.23.21.36.3ZM51.94 28.25c.02.03.05.06.1.07.03.01.08-.01.12-.04l.04-.04v-.08a2.47 2.47 0 0 0-.52-.68s-.06.04-.06.06l.02.07.1.22c.05.14.12.29.2.42ZM51.63 28.37l.07.1c.05 0 .1 0 .14-.03l.04-.03c.02-.02.02-.06.01-.09a2.48 2.48 0 0 0-.39-.76l-.07.05.02.07.05.24c.03.15.07.3.13.45ZM51.26 28.42c0 .04.01.09.05.11.03.03.08.02.13.01.02 0 .04 0 .05-.02.02-.02.03-.05.02-.08 0-.3-.1-.57-.2-.84l-.08.03v.32c0 .16 0 .32.03.47ZM52.56 25.85c.04-.03.07-.06.08-.1 0-.05-.02-.1-.04-.13l-.04-.04c-.03-.01-.06 0-.09.02-.24.14-.44.36-.64.58l.06.07.07-.04.2-.1c.14-.08.28-.16.4-.26Z" fill="#E61A5E"/><path d="M52 25.24c0-.04.02-.09 0-.13-.02-.04-.06-.06-.1-.08h-.06c-.02 0-.04.03-.06.06-.12.26-.17.57-.21.87 0 0 .07.02.08.01.02-.01.03-.05.04-.07l.11-.21.2-.45Z" fill="#E72774"/><path d="M52.26 25.43c.02-.04.03-.09.03-.13-.01-.04-.05-.07-.1-.1a.1.1 0 0 0-.04-.02c-.03 0-.05.03-.07.05-.17.25-.26.54-.35.82 0 .02.06.04.07.03.02 0 .04-.04.05-.06l.15-.19c.1-.13.19-.26.26-.4ZM51.66 25.1c0-.04 0-.09-.02-.12-.03-.04-.08-.05-.12-.06h-.05c-.03.02-.04.05-.05.08-.07.29-.05.6-.03.9h.08l.02-.08.07-.24c.04-.15.08-.31.1-.48ZM51.15 28.38c0 .04-.02.1-.05.12-.03.04-.08.04-.13.04l-.06-.01c-.03-.02-.03-.06-.03-.09a3 3 0 0 1 .16-.93c0-.01.08 0 .09.02v.08l.02.26c.02.17.02.34 0 .5ZM50.76 28.37c-.02.04-.04.09-.07.11-.05.03-.1.02-.14 0-.02 0-.04 0-.06-.02-.02-.02-.01-.06 0-.09.05-.31.2-.6.35-.88 0-.01.07.02.07.04v.08l-.04.26c-.03.17-.06.33-.11.5ZM49.97 28c-.04.03-.08.06-.12.06-.05 0-.09-.04-.12-.07a.11.11 0 0 1-.02-.06c0-.03.02-.06.04-.08.21-.23.5-.4.77-.55l.05.08c0 .02-.04.05-.06.07l-.17.2c-.12.12-.24.25-.37.35ZM50.24 28.21c-.03.04-.06.07-.1.08-.06 0-.1-.03-.14-.06-.01-.01-.03-.03-.03-.05-.01-.03 0-.06.02-.09.18-.26.44-.46.68-.66.01-.01.06.05.06.06 0 .03-.03.06-.04.08l-.14.22c-.1.14-.2.3-.3.42ZM49.72 27.7c-.04.03-.09.05-.13.03-.05 0-.07-.05-.1-.1v-.05c0-.04.02-.06.05-.08.26-.18.56-.28.86-.37.02 0 .03.07.03.09-.01.02-.05.04-.07.05l-.2.16a3 3 0 0 1-.44.28Z" fill="#E61A5E"/><path d="M48.54 31.76c0 .4-.34.7-.74.7a.72.72 0 0 1-.74-.7.72.72 0 0 1 .86-.7c.35.06.62.35.62.7Z" fill="#fff"/><path d="M47.7 30.5c0-.03 0-.06.03-.08.02-.03.06-.03.1-.03a.1.1 0 0 1 .04 0l.03.06c.03.22-.01.43-.05.65l-.07-.01v-.06l-.04-.17a1.87 1.87 0 0 1-.04-.35ZM47.44 30.54v-.1c.02-.02.06-.03.1-.04h.04c.02.01.03.03.04.06.07.2.06.42.06.64h-.06c-.02 0-.02-.04-.03-.05a5.94 5.94 0 0 1-.15-.51ZM47.18 30.67c-.02-.03-.03-.06-.02-.1l.08-.06h.04c.03 0 .04.01.05.03.12.19.16.4.21.62 0 0-.05.02-.06.01-.02 0-.03-.03-.04-.04l-.1-.15c-.06-.1-.12-.2-.16-.31ZM46.95 30.83l-.03-.09c.01-.03.04-.06.07-.08l.04-.02c.02 0 .04.02.05.04.15.16.23.36.32.56l-.06.03c-.02 0-.03-.03-.04-.04a6.2 6.2 0 0 0-.13-.13 1.8 1.8 0 0 1-.22-.27ZM46.78 31.01c-.02-.02-.04-.05-.04-.08s.02-.06.05-.08c0-.02.02-.03.03-.03.02 0 .05 0 .06.02.18.13.3.32.41.5l-.05.04c-.02 0-.04-.02-.05-.03l-.14-.1c-.1-.08-.19-.15-.27-.24ZM46.64 31.26c-.03-.01-.06-.03-.06-.06-.01-.04 0-.07.03-.1l.02-.03c.02-.01.05 0 .07 0 .2.1.35.25.51.4l-.04.05-.06-.02-.16-.07c-.1-.05-.21-.1-.31-.17ZM46.54 31.6c-.04 0-.07 0-.09-.03-.02-.03-.01-.06-.01-.1l.01-.04c.02-.02.04-.02.07-.02.21 0 .42.08.62.15.01 0 0 .06-.02.07H46.9c-.12 0-.24 0-.35-.02ZM46.55 31.86c-.03 0-.06 0-.08-.02-.03-.02-.03-.06-.03-.1v-.04c.01-.02.04-.03.06-.03.22-.04.43 0 .65.04l-.01.06-.06.02c-.06 0-.11.02-.17.03-.12.02-.24.04-.36.04ZM46.64 32.14h-.09c-.03-.02-.04-.06-.05-.1V32c0-.02.02-.03.04-.04.2-.08.43-.1.64-.1v.06c0 .02-.03.02-.04.03l-.17.07c-.1.05-.22.1-.33.12ZM48.98 31.34c.03-.02.06-.03.07-.06.01-.03 0-.07-.01-.1l-.03-.03h-.06c-.2.06-.39.18-.57.3l.03.06.06-.02.17-.04c.12-.03.23-.06.34-.11ZM49.02 31.58c.03-.01.06-.02.08-.05.02-.03.01-.06 0-.1l-.01-.04h-.06a2 2 0 0 0-.62.2l.03.06h.05l.18-.02c.12 0 .23-.02.35-.05ZM49 31.86c.04 0 .07 0 .1-.03.02-.02.02-.06.02-.1v-.04c-.02-.02-.04-.02-.06-.02-.22-.02-.43.02-.64.07v.06l.06.01.18.02c.11.02.23.03.34.03ZM48.95 32.12c.03 0 .06 0 .09-.02.03-.01.04-.05.04-.08v-.05c0-.02-.03-.03-.05-.03-.2-.06-.42-.05-.64-.04v.06l.05.02.17.05c.1.04.22.07.34.09ZM48.85 32.34c.03.01.06.02.09 0 .03 0 .04-.04.06-.07v-.05c0-.02-.02-.03-.04-.04-.19-.1-.4-.12-.62-.15l-.01.06c0 .02.03.02.05.03l.15.08c.1.06.2.11.32.14ZM48.68 32.57c.02.02.05.03.08.03.03-.01.06-.04.08-.07l.02-.04c0-.02-.02-.04-.04-.05-.16-.14-.36-.21-.56-.28l-.03.05c0 .02.03.03.04.04l.13.12c.09.07.18.15.28.2ZM48.4 32.8c.02.03.04.05.07.06.03 0 .07-.01.1-.03l.03-.03-.01-.06a1.75 1.75 0 0 0-.39-.49l-.05.04.02.06.07.15c.05.1.1.21.16.3ZM48.16 32.9c.02.02.03.05.06.06.03.01.07 0 .1-.02.01 0 .03 0 .04-.02v-.06c-.05-.2-.17-.38-.3-.55l-.05.04.01.05.04.17.1.32ZM47.88 32.93c0 .03.01.06.04.08.02.02.06.01.1 0h.04l.02-.07c0-.2-.08-.4-.16-.6l-.06.03V32.59c0 .12 0 .23.02.34ZM48.87 31.08c.03-.02.05-.04.06-.07l-.03-.1-.03-.02-.06.01c-.2.1-.35.27-.5.43l.05.04.05-.02.16-.09c.1-.05.21-.1.3-.18ZM48.44 30.65c0-.03.02-.06 0-.1 0-.02-.04-.04-.07-.05a.1.1 0 0 0-.05 0c-.02 0-.03.02-.04.04-.1.19-.13.4-.16.62l.06.01.03-.05.08-.15c.06-.1.11-.21.15-.32ZM48.64 30.78c.02-.03.03-.06.02-.09 0-.03-.03-.05-.06-.07-.02 0-.03-.02-.04-.01l-.06.03a2 2 0 0 0-.26.6s.05.02.06.01l.03-.04.11-.14c.08-.09.15-.18.2-.29ZM48.18 30.55l-.01-.1c-.02-.02-.06-.03-.09-.03h-.04c-.02 0-.03.03-.04.05a2 2 0 0 0-.02.65h.06l.02-.06.05-.17c.03-.11.06-.22.07-.34ZM47.8 32.9c0 .03-.01.07-.04.09-.03.02-.07.03-.1.02h-.05c-.02-.02-.02-.05-.02-.07 0-.22.06-.45.12-.66 0-.01.06 0 .07 0v.07l.02.18a2 2 0 0 1 0 .37ZM47.5 32.9c-.01.02-.03.06-.06.07-.03.02-.07.01-.1 0l-.04-.01c-.02-.02-.02-.05-.01-.07.04-.22.16-.43.27-.63l.06.02v.07l-.04.18c-.02.12-.04.25-.08.36ZM46.9 32.63c-.03.02-.06.04-.1.04-.03 0-.06-.03-.08-.05l-.02-.04c0-.03.01-.05.03-.06.17-.17.38-.29.6-.4 0 0 .03.05.02.06l-.04.05-.13.14-.28.26ZM47.1 32.78c-.02.02-.04.05-.08.05-.03 0-.07-.02-.1-.04 0 0-.02-.01-.02-.03-.01-.02 0-.04.02-.06.13-.2.32-.34.51-.48l.05.05-.03.05-.11.16c-.07.1-.14.2-.23.3ZM46.7 32.42l-.09.02c-.03-.01-.06-.05-.07-.08 0-.01-.02-.02-.01-.04 0-.02.02-.04.04-.05.2-.13.43-.2.66-.27l.02.06c0 .02-.04.03-.05.04l-.16.12-.33.2Z" fill="#fff"/><path d="M48.14 31.73a.35.35 0 0 1-.7 0c0-.2.15-.35.35-.35.2 0 .35.16.35.35Z" fill="#E61A5E"/><path d="M51.71 26.75c0 .32-.26.58-.59.58a.59.59 0 0 1-.59-.58c0-.32.27-.58.6-.58.32 0 .58.26.58.58Z" fill="#F49744"/><path d="M50.07 16.65c-.04 0-.18.03-.23.08-.06.06-.1.11-.12.2 0 .02.03.21.2.12.02-.02.06-.03.09-.04.01 0-.01.06-.05.09l-.02.04-.03.03a9.1 9.1 0 0 0 .04-.03l.02-.02.03-.02c.02-.02.03-.08.05-.09.02 0 .06.05.06.07l-.02.07-.01.11-.03.06.05-.02a.06.06 0 0 0 .02-.05l.02-.05v-.02l.03-.1c.02-.01.03-.1.05-.12.04.02.13.14.15.14-.01.01.07.18.09.2l-.01-.11v-.01l-.04-.1c0 .01 0 0 0 0v-.02l-.04-.1.07.02a1.99 1.99 0 0 0 .11.04c0 .02.04.06.05.07a.1.1 0 0 0 .04.04h.04l-.03-.02-.02-.02-.01-.01-.01-.04V17a.16.16 0 0 0-.04-.04h-.03l-.01-.02v-.01h-.04v.01h-.01v-.01l.03-.02v-.01l.05.04.03.02.02.01v.04l.02-.01v-.02l.01-.03c0-.01.02-.02 0-.04v-.07h.02l.01.03c.04.06.08.12.13.16h.02a1.85 1.85 0 0 0-.09-.1l-.05-.07-.01-.02-.02-.01v-.02c0-.01.02-.02.03-.01l.03.01.03.02.04.02.05.02.07.04a.1.1 0 0 0-.05-.05l-.07-.02-.03-.02c-.01 0-.02 0-.03-.02 0 0-.02 0-.02-.02-.01-.02-.03-.01-.05 0v-.02c0-.03-.02-.06-.05-.06h-.05l-.01.04h-.01c-.16-.16-.42-.11-.46-.1" fill="#E5173D"/><path d="M49.9 16.3c.1.07.14.17.2.26l.06.1c.01.03.01.06-.02.08l-.07-.01a.43.43 0 0 1-.12-.06l-.07-.07-.22-.18a.25.25 0 0 1-.05-.05.17.17 0 0 1-.02-.08v-.04l.05-.03a.2.2 0 0 1 .14.02l.12.06Z" fill="#E5173D"/><path d="M50.29 16.21c.06.14.03.3.03.44v.15c-.02.04-.04.07-.08.07-.03 0-.06-.04-.08-.07a.55.55 0 0 1-.09-.15l-.02-.12-.12-.36a.32.32 0 0 1-.02-.1c0-.04.02-.07.03-.1a.1.1 0 0 1 .05-.04.1.1 0 0 1 .06 0c.07.02.11.07.14.12.04.06.08.1.1.16Z" fill="#E5173D"/><path d="M51.4 26.73c0 .14-.12.26-.27.26a.26.26 0 0 1-.26-.26c0-.15.12-.26.26-.26.15 0 .27.11.27.26ZM53.29 40l-.05-.06s-.1-.17-.12-.23a9.97 9.97 0 0 1-.07-.71c0 .04-.2-.58-.2-.54l-.04-.3c0-.07.1-.54.1-.54s-.2-.03-.31 0c-.11-.02-.56.46-.56.46s-.41.33-.43.31c-.01-.01.2-.32.2-.32l.2-.32.19-.22.12-.12-.2-.01-.45.17.22-.19.18-.11h.2l.23.04.27-.14.42.02.33-.33s.75-.59 1-.7c.22-.12.7-.94.7-.94s.22-.65.22-.94c0-.3.08-.6.08-.6l.03-.33-.42.25-.36.16-.33.2s-.25.09-.3.13c-.04.03-.22.3-.22.3l-.16.43-.15.47c-.02.07-.22.47-.26.52l-.1.1.25-.61.14-.56.14-.4.09-.17-.22.15s-.17.12-.22.23c-.1.04-.36.6-.36.6s0-.13.04-.24c.02-.11.2-.4.2-.4l.29-.31.4-.25.42-.19-.49.05c-.08-.03-.55.16-.65.19-.1.04-.49.5-.49.5l-.35.51-.38.41-.7.46-.27.37-.14.43s-.04-.42-.01-.5c.02-.06.32-.58.32-.58l.28-.3.4-.3.26-.38-.53.03-.29.1-.36.29-.07.03.32-.38.32-.17.36-.06.34-.02.17-.26.32-.36.61-.35.5-.2c.01-.05-.32-.15-.36-.16-.13-.08-.61.1-.61.1l-.5.32-.28.16-.15-.01.36-.25.56-.46c.05-.03.41-.13.45-.13l.49.04c.05.01.34.26.43.29.1.02.57-.11.57-.11l.47-.32.42-.35s.36-.69.35-.65c-.02.04.15-.64.15-.64v-.8c-.01-.2-.13-.56-.13-.66-.01-.1 0-.64.01-.75.02-.12.25-.71.25-.71s.02-.19.18-.18c.15 0 .23-.07.23-.07s.12-.07.19-.2c.06-.13.17-.04.25-.06.07-.03.14-.12.2-.22.07-.1.19-.02.26-.06l.2-.14s2.33-.94 2.39-.74c.05.2.49-.15.49-.15s.48-.36.54-.17c.06.2.51-.15.51-.15s.74-.4.65-.2c-.1.2.65-.2.65-.2s.82-.42.66-.2c-.16.22.73-.23.73-.23s.97-.53.82-.25c-.15.29.69-.2.69-.2s.63-.5.73-.22l.84.9-.69 1.03-.46 2.8.68 1.13c0 .1.15 1.54.17 1.55.31.17 1.4.27 1.77.41l-.33 1.07c-.04.05-1.01-.05-1.2-.01-2.15.47-8.83-1.93-8.83-1.93s-2.1-2.45-2.12-2.39c0 .06.18.84.19.92l.06.97c0 .07.13.43.15.48l.29.4s.25.1.31.14c.06.03.28.29.28.29l.31.37.35.13.25.09c.04.01.11.17.11.17l.13.16.1.3-.13-.17-.12-.16-.1-.1-.16-.1-.1-.07s-.14-.04-.18-.01c-.05.02-.14-.07-.14-.07l.02.11.25.26.17.18.13.21.1.29.04.1-.02.37-.04-.29-.07-.2-.18-.33-.2-.21-.13-.12-.09-.11-.12-.15-.2-.41s-.18-.3-.24-.33l-.3-.14.14.78-.03.52-.03.52.09.35.22.44.13.32.03.38-.02.3-.11.38.03-.34-.02-.26-.05-.3-.1-.29-.15-.3-.18-.28-.06-.25v-.86l-.05-.49-.1-.3-.36-.56-.06-.06-.07.2-.09.21-.03.61-.07.51-.09.35-.04.4.03.44.09.5-.19.86.03-.52v-.41l-.05-.4-.04-.49.08-.48.1-.5-.03-.43-.15.4-.09.37-.06.52-.07.52-.07.46-.23.65-.4.63-.26.23-.28.24-.28.13-.24.17-.27.41s-.17.17-.17.2l.01.38v.6l.02.59-.02.2-.06-.43-.08-.46-.06-.3v-.24l.04-.3s-.26.21-.29.27l-.1.36.04.38.06.33.03.4.03.3.02.2c0 .05 0 .17-.02.17" fill="#75C8DB"/><path d="M59.31 30.1c0 .33-.29.6-.64.6a.63.63 0 0 1-.64-.6c0-.35.28-.62.64-.62.35 0 .64.27.64.61Z" fill="#DC2B73"/><path d="M59.78 29.39c.32-.82.42-1.7.3-2.57 0-.14-.03-.27.01-.4.03-.09.1-.17.17-.23.44-.45 1.23-.6 1.73-.21.15.11.27.27.39.42l.65.87-.02-.5.44-.07c.06-.12-.12-.21-.26-.25-.5-.15-.92-.54-1.1-1.02.39-.03.74-.3.85-.67-.32.22-.75.28-1.12.15.32-.16.5-.5.56-.85.06-.35 0-.4-.01-.75-.09.47-.18.67-.5 1.04-.3.36-.9.55-1.29.26.4-.3.65-.79.65-1.28-.46.4-.69 1.01-1.15 1.41-.19.16-.4.28-.6.42a4.22 4.22 0 0 0-1.72 2.44c-.05.22-.15.53-.11.75.04.28.14.26.42.33.6.16 1.18.38 1.71.7Z" fill="#B36047"/><path d="M57 25.23c.04-.11-.08-.22-.15-.3a.53.53 0 0 1-.12-.46c.04-.16.18-.3.34-.3.1 0 .19.05.28.07.3.04.63-.19.89-.03.15.09.21.3.14.47-.1.19-.34.3-.36.5.22-.02.37-.3.6-.3.1 0 .2.08.27.18.06.1.09.22.1.33.03.12.04.25.02.37-.03.12-.11.23-.23.26-.12.04-.27-.02-.36.07.13.08.27.17.3.32.03.16-.06.3-.17.42-.1.12-.21.22-.34.3-.13.1-.3.17-.43.06-.12-.11-.07-.32-.14-.47a.7.7 0 0 1-.61.56.72.72 0 0 1-.7-.45c-.07-.14-.07-.33.05-.43.1-.06.25-.07.28-.18-.21.01-.46 0-.6-.17-.16-.2-.07-.5.07-.72.1-.15.27-.3.44-.24.09.03.15.1.23.15.08.05.21.04.24-.05m.5.13a.47.47 0 0 0-.47.48c0 .26.2.47.46.47s.47-.21.47-.47c0-.27-.21-.48-.47-.48Z" fill="#F4C124"/><path d="M62.06 26.45a.6.6 0 0 1 .11.59.58.58 0 0 1-.1-.09.8.8 0 0 1-.08.35 1.85 1.85 0 0 1-.08-.13c0 .1-.04.2-.07.29a.94.94 0 0 1-.08-.14c0 .1-.06.18-.09.27l-.05-.12c-.03.12-.1.22-.18.33-.03-.12-.07-.24-.02-.37a.43.43 0 0 0-.12.03c.02-.06.03-.13.09-.17a.28.28 0 0 0-.13-.02c.02-.05.06-.1.1-.14a.21.21 0 0 0-.14-.01c.03-.07.05-.13.11-.18a.2.2 0 0 0-.14.02l.12-.2v-.01l-.01-.01h-.1c.03-.07.05-.14.12-.18a.11.11 0 0 0-.11.01.55.55 0 0 1 .22-.17c.1-.05.2-.1.3-.08.04 0 .08 0 .14.05.02.02-.29.87-.28.87.1 0 .31-.83.36-.86.03-.02.07.04.11.07Z" fill="#0E7433"/><path d="M60.58 29.94a2.1 2.1 0 0 1-2.1 2.08 2.1 2.1 0 0 1-2.1-2.08 2.1 2.1 0 0 1 2.1-2.08c1.16 0 2.1.94 2.1 2.08Z" fill="#F1871A"/><path d="M59.4 29.99a.8.8 0 0 1-.81.78.8.8 0 0 1-.81-.78.8.8 0 0 1 .81-.78l.13.01c.39.06.68.38.68.77Z" fill="#fff"/><path d="M58.49 28.61c0-.03 0-.07.03-.1.02-.02.06-.02.1-.02h.05c.02.01.03.04.03.07.04.23 0 .47-.05.7 0 .01-.06 0-.07 0l-.01-.07-.04-.19a1.95 1.95 0 0 1-.04-.39ZM58.2 28.65v-.1c.03-.03.07-.04.1-.05h.05c.02 0 .04.03.04.06.08.22.08.46.07.7h-.06c-.02 0-.02-.04-.03-.05a10.8 10.8 0 0 1-.18-.56ZM57.91 28.8c-.01-.04-.02-.08-.01-.1.01-.04.05-.06.08-.08l.05-.01c.02 0 .04.02.05.04.13.2.18.45.23.68l-.06.02c-.02-.01-.03-.04-.04-.06l-.1-.16c-.08-.1-.15-.22-.2-.34ZM57.67 28.97c-.02-.03-.04-.06-.04-.1.01-.04.04-.06.07-.09l.05-.02c.02 0 .04.02.06.04.16.18.25.4.35.62l-.07.03-.04-.04-.14-.14c-.09-.1-.18-.2-.24-.3ZM57.48 29.17c-.03-.02-.05-.05-.05-.09 0-.04.03-.07.06-.1l.03-.02c.03 0 .05 0 .07.02.19.15.32.35.45.55l-.06.04c-.02 0-.04-.02-.05-.03l-.16-.12c-.1-.07-.2-.15-.3-.25ZM57.32 29.45c-.03-.02-.06-.05-.07-.08 0-.04.01-.07.03-.1l.03-.04h.08c.21.1.39.28.56.44l-.05.06-.06-.03a5.89 5.89 0 0 0-.18-.07 1.92 1.92 0 0 1-.34-.18ZM57.2 29.82c-.03 0-.06-.01-.08-.04-.03-.03-.02-.07-.02-.11 0-.02 0-.03.02-.05l.06-.02c.24 0 .47.1.7.17l-.03.07h-.06l-.2.01c-.13 0-.26 0-.38-.03ZM57.23 30.1c-.04 0-.07 0-.1-.03-.03-.02-.03-.06-.03-.1v-.05c.02-.02.04-.03.07-.03.23-.04.47 0 .7.04.01 0 0 .07 0 .07-.02.02-.05.02-.07.02l-.19.04c-.12.02-.25.04-.38.04ZM57.32 30.4c-.03.01-.07.02-.1 0s-.05-.06-.06-.1v-.04c0-.03.03-.04.05-.05.22-.09.47-.1.7-.11v.06c0 .02-.03.03-.05.03l-.18.08-.36.14ZM59.9 29.52l.07-.06c.01-.03 0-.07-.01-.1l-.03-.04c-.02-.02-.05-.01-.07 0-.23.06-.43.2-.62.34l.03.05.06-.01.2-.05c.12-.03.24-.07.36-.13ZM59.94 29.79c.03-.01.06-.02.08-.05.02-.03.02-.07.01-.11 0-.02 0-.03-.02-.04-.01-.02-.04-.02-.07-.02-.23.03-.45.13-.67.23l.03.07h.06l.2-.02.38-.06ZM59.92 30.1c.03 0 .07-.01.1-.03.02-.03.03-.07.03-.1l-.01-.05c-.01-.02-.04-.03-.06-.03-.24-.03-.48.03-.7.08-.02 0 0 .06 0 .06l.06.01.2.03c.12.02.25.03.38.03ZM59.86 30.38h.1c.03-.03.04-.07.05-.1v-.06c-.01-.02-.04-.03-.06-.03a2.12 2.12 0 0 0-.7-.05c-.01 0-.01.06 0 .07l.05.02.18.06c.12.04.25.08.38.1ZM59.74 30.63c.04.01.07.02.1 0 .04-.01.06-.05.07-.08l.01-.05c0-.02-.03-.04-.05-.05-.2-.1-.44-.13-.68-.16l-.01.06c0 .02.03.03.05.04.06.02.11.06.17.09.1.06.22.11.34.15ZM59.56 30.88c.02.02.06.04.1.03.03 0 .06-.04.08-.07l.02-.05c0-.02-.02-.04-.04-.05-.18-.15-.4-.23-.62-.32l-.03.07.05.04.14.13c.09.08.19.16.3.22ZM59.26 31.14c.02.02.04.05.07.06.04 0 .07-.01.1-.03.02-.01.04-.02.04-.04v-.06c-.1-.2-.27-.38-.43-.54l-.05.05.02.06.07.17c.05.11.1.22.18.33ZM59 31.23c.01.03.03.06.06.08.03 0 .07 0 .1-.02l.05-.02c.01-.02.01-.05 0-.07-.05-.22-.19-.42-.32-.6l-.06.03.01.06.04.19c.03.12.06.24.12.35ZM58.68 31.28c0 .03.02.06.04.08.03.02.08.02.11.01a.1.1 0 0 0 .05-.01c.02-.02.02-.05.02-.07 0-.23-.09-.45-.17-.66l-.07.02v.26c0 .12 0 .24.02.37ZM59.78 29.24c.02-.02.05-.04.06-.07 0-.04-.02-.07-.04-.1 0-.02-.01-.03-.03-.04-.02 0-.05 0-.07.02-.2.11-.37.29-.53.46l.04.05.06-.03.18-.08.33-.2ZM59.3 28.77c0-.04.02-.07 0-.1 0-.04-.05-.05-.08-.07a.08.08 0 0 0-.05 0c-.02 0-.03.03-.05.05-.1.2-.14.45-.18.68l.07.02.03-.06.1-.17c.06-.11.12-.23.16-.35ZM59.52 28.91c.02-.03.03-.06.03-.1-.01-.03-.05-.05-.08-.07a.09.09 0 0 0-.04-.02c-.03 0-.05.02-.06.04-.14.2-.22.42-.3.65 0 0 .06.03.07.02.02 0 .03-.03.04-.04l.12-.16c.08-.1.16-.2.22-.32ZM59.02 28.66c0-.04 0-.07-.02-.1s-.06-.04-.1-.04h-.04c-.03 0-.04.03-.04.06-.06.23-.05.47-.03.7 0 .02.06.01.07 0l.02-.05.05-.19c.04-.12.07-.25.09-.38ZM58.6 31.24c-.01.04-.02.08-.05.1-.03.03-.07.03-.11.03l-.05-.01c-.02-.02-.03-.04-.03-.07 0-.25.07-.5.14-.73l.07.01c.01.02 0 .05 0 .07l.02.2c.01.13.02.27 0 .4ZM58.26 31.24c0 .03-.02.07-.06.08-.03.03-.07.02-.11 0l-.05-.01c-.02-.02-.01-.05 0-.07.04-.25.16-.48.29-.7l.06.03c.01.02 0 .05 0 .07l-.04.2c-.02.13-.04.27-.09.4ZM57.6 30.95c-.02.02-.06.04-.1.04-.04 0-.07-.03-.1-.06l-.02-.04c0-.03.02-.05.04-.07.18-.18.42-.3.65-.43 0 0 .04.05.03.06 0 .02-.03.04-.04.05l-.15.16-.3.29ZM57.83 31.1c-.02.04-.05.06-.09.07-.04 0-.08-.02-.1-.04l-.04-.04.02-.07c.15-.21.36-.37.57-.53l.05.06-.04.05-.11.18c-.08.12-.16.23-.26.33ZM57.4 30.71c-.04.02-.08.03-.11.02-.04 0-.06-.04-.08-.08 0-.01-.02-.02-.01-.04 0-.03.02-.05.04-.06.22-.14.48-.22.73-.3l.02.07c0 .02-.04.04-.05.05l-.18.12a2.3 2.3 0 0 1-.36.22Z" fill="#fff"/><path d="M59.14 29.75c.1.3-.06.62-.36.73a.58.58 0 0 1-.75-.33c-.1-.3.06-.62.36-.73.31-.11.65.04.75.33Z" fill="#E61A5E"/><path d="M58.76 30c0 .12-.09.21-.2.21a.2.2 0 1 1 0-.4c.11 0 .2.08.2.2Z" fill="#F4C31A"/><path d="M64.32 26.33c0 .2-.18.38-.4.38a.39.39 0 0 1-.4-.38c0-.21.18-.38.4-.38.22 0 .4.17.4.38ZM63.52 25.68a.4.4 0 0 1-.4.39.4.4 0 0 1-.4-.39.4.4 0 0 1 .4-.38c.22 0 .4.17.4.38Z" fill="#E5173D"/><path d="M51.72 14.75c.07-.05.05-.16.04-.24a.37.37 0 0 1 .12-.32c.09-.08.23-.1.33-.03.06.04.1.1.15.16.17.15.46.16.56.36.06.12 0 .27-.11.34-.14.07-.34.03-.44.15.15.07.36-.03.5.07.06.05.1.14.09.22 0 .09-.04.17-.08.25a.63.63 0 0 1-.15.21c-.06.06-.16.1-.24.06-.1-.03-.17-.13-.26-.11.05.1.1.21.05.32-.04.1-.17.15-.28.17a1.4 1.4 0 0 1-.34.03c-.12 0-.26-.04-.29-.15-.03-.12.1-.22.11-.34a.53.53 0 0 1-.62.07.54.54 0 0 1-.24-.57c.02-.1.1-.22.22-.22.09 0 .18.06.25 0-.14-.08-.29-.19-.3-.35-.01-.19.17-.33.35-.4.13-.04.3-.06.37.05.05.05.05.13.08.2.03.05.11.1.17.06m.25.3a.36.36 0 0 0-.49.08.34.34 0 0 0 .09.48c.16.1.37.07.49-.08a.34.34 0 0 0-.09-.49Z" fill="#F8D000"/><path d="M59.73 38.75c0 .85-.7 1.53-1.55 1.53-.86 0-1.55-.68-1.55-1.53 0-.84.7-1.53 1.55-1.53.86 0 1.55.69 1.55 1.53Z" fill="#F29495"/><path d="M58.64 38.58c0 .22-.2.4-.43.4-.24 0-.43-.18-.43-.4 0-.23.19-.4.43-.4s.43.17.43.4Z" fill="#F7A732"/><path d="M58.7 38.68a.6.6 0 0 1-.6.6.6.6 0 0 1-.59-.6.6.6 0 0 1 .7-.6c.28.05.5.3.5.6Z" fill="#E61A5E"/><path d="M58.03 37.6c0-.02 0-.05.02-.07.02-.02.05-.02.08-.03l.04.01.02.05c.03.18 0 .37-.04.55h-.05l-.01-.05-.03-.15-.03-.3ZM57.82 37.63v-.07c.02-.03.05-.04.08-.04h.03c.02 0 .03.02.03.04.06.18.06.37.06.55h-.05c-.02 0-.02-.03-.02-.04l-.05-.14c-.04-.1-.07-.2-.08-.3ZM57.6 37.74c0-.02-.01-.05 0-.07 0-.03.04-.05.06-.06h.03c.02 0 .03.01.04.03.1.16.14.34.17.52l-.05.02-.02-.04-.08-.13c-.06-.08-.1-.17-.14-.27ZM57.43 37.88c-.02-.02-.03-.05-.03-.07.01-.03.03-.05.06-.07l.03-.02c.02 0 .03.02.04.03.12.14.2.32.26.49l-.05.02-.03-.03-.1-.11a1.64 1.64 0 0 1-.18-.24ZM57.29 38.04c-.02-.02-.04-.04-.04-.07 0-.03.03-.05.05-.07 0-.01.01-.02.03-.02.01 0 .03 0 .04.02.14.11.24.27.33.43l-.04.03-.04-.03a5.02 5.02 0 0 1-.33-.29ZM57.17 38.26c-.02-.02-.04-.03-.05-.06 0-.03.01-.06.03-.08 0-.02.01-.03.02-.03h.05c.16.08.3.21.42.34l-.04.04-.04-.01-.13-.06a1.4 1.4 0 0 1-.26-.14ZM57.09 38.55c-.03 0-.05-.01-.07-.03v-.12c.01-.02.03-.02.05-.02.18 0 .35.07.51.13l-.01.05h-.05l-.15.01c-.1 0-.19 0-.28-.02ZM57.1 38.77c-.02 0-.05 0-.07-.02-.02-.02-.02-.05-.02-.09v-.03l.05-.03c.17-.03.35 0 .52.04v.05l-.05.01-.14.03c-.1.02-.19.04-.28.04ZM57.17 39c-.02.01-.05.02-.07 0-.02-.01-.03-.04-.04-.07v-.04c0-.02.02-.03.04-.03.16-.08.34-.09.51-.1v.06l-.03.02-.14.06c-.08.05-.17.08-.27.1ZM59.06 38.32c.03-.01.05-.03.06-.05v-.08l-.03-.04h-.05c-.17.06-.31.16-.46.27l.03.04h.04l.14-.04.27-.1ZM59.1 38.52c.02 0 .05-.01.06-.03.02-.03.01-.06 0-.09v-.03l-.06-.01c-.17.02-.33.1-.5.18l.03.05h.04l.15-.02c.1 0 .19-.02.28-.05ZM59.08 38.77c.03 0 .06-.01.08-.03.02-.02.02-.05.02-.08v-.04l-.05-.02c-.17-.02-.35.02-.52.06v.06h.05l.14.03.28.02ZM59.04 38.99l.07-.01.04-.08v-.03c0-.02-.03-.03-.04-.03-.17-.06-.35-.05-.52-.04v.05l.04.02.14.05.27.07ZM58.96 39.18c.02.01.05.02.07 0 .03 0 .04-.04.05-.06v-.04c0-.02-.01-.03-.03-.04-.15-.08-.33-.1-.5-.12l-.01.05.04.02.12.07c.08.05.17.1.26.12ZM58.82 39.38c.02.01.04.03.07.02.02 0 .04-.03.06-.06l.01-.03-.02-.04c-.13-.12-.3-.18-.46-.25l-.02.05c0 .02.02.03.03.04l.1.1.23.17ZM58.6 39.58c.01.02.03.04.05.04.03.01.06 0 .08-.02l.03-.03v-.05a1.5 1.5 0 0 0-.32-.41l-.04.03.02.05.05.13c.04.09.07.18.13.26ZM58.4 39.65l.05.06c.03.01.06 0 .08-.01l.03-.02c.02-.02.01-.04 0-.06a1.54 1.54 0 0 0-.23-.46l-.04.02v.05l.04.14c.02.1.04.2.08.28ZM58.18 39.69c0 .02 0 .05.03.06.02.02.05.02.08.01l.03-.01c.02-.01.02-.03.02-.05 0-.18-.07-.35-.13-.52l-.05.02v.19c0 .1 0 .2.02.3ZM58.98 38.1a.13.13 0 0 0 .05-.06c0-.03-.01-.06-.03-.08l-.02-.03c-.02 0-.04 0-.05.02-.16.08-.28.22-.4.36l.04.04.04-.02.13-.07.24-.16Z" fill="#E61A5E"/><path d="M58.63 37.73v-.08c0-.03-.03-.04-.06-.05h-.04l-.03.03c-.08.17-.1.35-.13.54h.04c.02 0 .02-.02.03-.03l.07-.14.12-.27Z" fill="#E72774"/><path d="M58.8 37.84c0-.02.01-.05 0-.07 0-.03-.02-.05-.05-.07l-.03-.01c-.02 0-.03.02-.04.03-.1.15-.16.33-.22.5l.05.03.03-.04.1-.12.15-.25ZM58.42 37.64l-.01-.08c-.02-.02-.05-.02-.07-.03h-.04l-.02.05c-.05.18-.04.37-.03.55h.05l.02-.05.04-.14.06-.3ZM58.1 39.66c0 .03 0 .06-.02.08-.02.02-.05.02-.08.02h-.04l-.02-.06c0-.2.05-.39.1-.58l.06.02v.05l.01.15c.01.1.02.21 0 .32M57.87 39.65c-.01.03-.02.06-.05.07-.02.02-.05.01-.08 0l-.03-.01c-.02-.01-.01-.04-.01-.06.03-.19.13-.37.22-.54l.05.02-.01.06-.02.15-.07.31ZM57.38 39.43c-.02.02-.04.03-.07.03-.03 0-.05-.02-.07-.04l-.02-.04c0-.02.01-.03.03-.05.13-.14.3-.24.47-.33l.03.04c0 .02-.02.03-.03.04l-.1.12c-.08.08-.15.16-.24.23ZM57.55 39.56c-.02.02-.04.04-.07.04-.03 0-.05-.01-.08-.03l-.02-.03c0-.02 0-.04.02-.05.1-.17.26-.3.42-.41l.03.04-.03.04-.08.14-.19.26ZM57.23 39.24c-.02.02-.05.03-.08.02-.03 0-.04-.03-.06-.06v-.04c0-.02.01-.03.03-.04.16-.11.35-.17.53-.23l.02.05c-.01.01-.03.03-.05.03l-.12.1c-.09.06-.17.13-.27.17Z" fill="#E61A5E"/><path d="M58.46 38.66c0 .2-.17.36-.37.36a.36.36 0 0 1-.36-.36.36.36 0 0 1 .73 0Z" fill="#F1871A"/><path d="M58.26 38.64c0 .09-.07.16-.16.16a.16.16 0 0 1-.16-.16c0-.09.07-.16.16-.16.1 0 .16.07.16.16Z" fill="#75C8DB"/><path d="M59.45 41.96c.42.05.84.38 1.03.8-.1.01-.19 0-.28 0 .19.21.28.4.38.69l-.31-.1c.13.17.2.37.31.55a2.42 2.42 0 0 1-.33-.12c.14.16.16.39.26.58l-.26-.13c.14.23.17.52.21.78-.22-.15-.45-.3-.57-.56a.88.88 0 0 0-.14.2c-.07-.12-.15-.25-.12-.4a.57.57 0 0 0-.22.14.9.9 0 0 1-.06-.36.43.43 0 0 0-.22.16c-.07-.14-.12-.26-.09-.44a.38.38 0 0 0-.2.22l-.11-.48s0-.03-.02-.03h-.03a.66.66 0 0 0-.16.13c-.05-.14-.11-.27-.07-.43a.22.22 0 0 0-.15.16c-.03-.21.03-.41.1-.6.07-.2.16-.42.33-.54.07-.05.17-.18.34-.16.07 0 .34.76.36.76.21-.03-.3-.69-.27-.79.03-.08.18-.03.29-.03Z" fill="#B97414"/><path d="M46.66 21.4c0 .35-.3.63-.65.63a.64.64 0 0 1-.65-.62c0-.35.29-.63.65-.63.36 0 .65.28.65.63Z" fill="#F29495"/><path d="M46.38 21.41c0 .2-.17.37-.38.37a.37.37 0 0 1-.38-.37c0-.2.17-.36.38-.36.2 0 .38.16.38.36Z" fill="#E61A5E"/><path d="M46.2 21.41a.2.2 0 1 1-.4 0 .2.2 0 0 1 .4 0Z" fill="#F2E622"/><path d="M66.48 36.26a.45.45 0 0 1 .08-.19.39.39 0 0 1 .29-.13c.1 0 .22.02.32.04.3.05.98.05 1.04.42-.18-.17-.54.11-.56.24 0 .07 0 .15-.03.21a.52.52 0 0 1-.33.33c-.14.05-.3.06-.46.06-.09 0-.19-.02-.23-.1-.05-.07-.02-.18-.08-.25-.1.2-.48.84-.54 1.15-.05 0-.08-.09-.12-.12.1-.26.22-.52.37-.75.08-.12.25-.27.26-.42.01-.16-.05-.32-.01-.5Z" fill="#0E7433"/><path d="M65.97 36.47c.03-.03.02-.08 0-.13a.21.21 0 0 0-.06-.08l-.26-.24c.06 0 .21-.05.27-.08.05.11.1.19.2.24.06-.17.06-.24.1-.4l.15.15c-.25.1-.48 2.6-.5 2.7-.04.01-.08-.12-.11-.14 0-.28-.02-1.77.2-2.02Z" fill="#0E7433"/><path d="M62.21 42.93a.8.8 0 0 1-.8.8.8.8 0 0 1-.8-.8c0-.43.35-.79.8-.79.44 0 .8.36.8.8Z" fill="#F29495"/><path d="M61.74 42.94c0 .2-.17.35-.37.35a.36.36 0 0 1-.37-.35c0-.2.16-.36.37-.36.2 0 .37.16.37.36Z" fill="#F8D000"/><path d="M43.1 30.5c-.04.22-.08.44-.18.64-.1.2-.26.37-.47.45l.01-.22c0-.03 0-.06-.02-.07-.02-.02-.06 0-.1 0-.06 0-.1-.06-.1-.13.01-.06.05-.11.1-.16l.32-.37a.54.54 0 0 1 .2-.16c.08-.03.18-.01.23.06M42.2 30.9c-.1.08-.21.13-.33.15-.08-.09.08-.24 0-.33l-.05-.04-.21-.1c.2-.17.5-.11.74-.2.04-.02.09-.05.14-.04.09 0 .17.1.26.07M42.5 30.29a.83.83 0 0 1-.5-.02c-.26-.1-.48-.31-.58-.58.07 0 .14 0 .21-.03.03 0 .05-.01.06-.03l.01-.07c.02-.06.08-.1.15-.1.06.01.11.04.17.07.15.1.3.18.46.27 0 .05.09.06.04.17-.03.06-.09.17-.02.32ZM42.63 29.7c-.28-.18-.49-.46-.6-.77.12.07.29-.03.29-.16v-.05c.02-.01.05 0 .07.01l.19.13.09.08c.04.05.05.1.06.17.02.1.05.2.04.31-.01.1-.05.21-.14.27M42.93 29.58c.1.04.22-.02.23-.12l.01-.1.03-.1.2-.56a.65.65 0 0 0-.24.1c0-.05-.06-.1-.11-.09-.06 0-.1.04-.15.07-.04.02-.08.05-.09.1l.02.1c.06.19-.05.4.06.56M43.06 30.33c.28.07.6-.05.75-.29l.02-.03c0-.03-.03-.06-.06-.07-.04-.01-.07-.01-.1-.04.1-.08.2-.18.26-.3.04-.06.06-.16 0-.2h-.08c-.22 0-.46.04-.58.22-.12.18-.05.43-.14.63M42.61 29.94c.08-.14.23-.2.34-.13.1.07.13.24.06.38-.08.14-.23.2-.34.12-.1-.07-.13-.24-.06-.37Z" fill="#E5173D"/><path d="M42.74 30.13c.02-.01.05 0 .07.02 0 .02 0 .05-.03.06-.02.01-.05 0-.06-.01a.05.05 0 0 1 .02-.07ZM42.87 29.96c.03-.01.06 0 .08.02.01.03 0 .06-.03.07-.02.02-.06.01-.07-.02-.01-.02 0-.05.02-.07Z" fill="#E5173D"/><path d="M44.27 30.04a.53.53 0 0 1 .3-.5l.02.14a.68.68 0 0 1 .3-.17l-.03.15c.07-.07.16-.1.24-.15 0 .06-.02.11-.03.17.06-.07.17-.08.25-.12l-.04.12c.1-.06.23-.07.35-.08-.05.1-.1.22-.22.27l.11.07c-.05.04-.1.07-.18.05.02.05.05.09.08.12a.36.36 0 0 1-.16.02c.02.05.05.09.1.12-.07.03-.12.05-.2.03.02.05.06.09.11.1l-.22.05h-.01v.03l.08.08c-.07.02-.12.05-.2.02.01.04.05.07.09.08a.56.56 0 0 1-.3-.06.69.69 0 0 1-.28-.18c-.03-.03-.08-.07-.09-.15 0-.04.8-.37.8-.38 0 0-.78.32-.83.3-.04-.01-.03-.08-.04-.13Z" fill="#0E7433"/><path d="M59.42 40.98c.15-.1.4-.1.6-.02a.55.55 0 0 1-.09.07c.14.02.23.06.36.13l-.14.05c.1.02.2.06.3.1a.9.9 0 0 1-.16.05c.1.01.18.08.28.12-.05 0-.09.02-.13.03.12.04.23.12.33.2-.13 0-.25.02-.38-.03 0 .04 0 .07.02.1-.06-.02-.13-.04-.17-.1a.23.23 0 0 0-.03.11.5.5 0 0 1-.14-.1.16.16 0 0 0-.02.12.34.34 0 0 1-.17-.13.16.16 0 0 0 0 .13l-.2-.13h-.02l-.01.1c-.06-.04-.13-.06-.17-.13a.09.09 0 0 0 0 .1.56.56 0 0 1-.16-.23c-.05-.09-.09-.18-.07-.27 0-.04 0-.1.06-.15.03-.01.39.17.4.17.17-.2-.35-.16-.38-.2-.02-.04.05-.06.09-.1Z" fill="#B97414"/><path d="M59.01 41.38c0 .22-.2.4-.44.4s-.44-.18-.44-.4c0-.23.2-.41.44-.41s.44.18.44.4Z" fill="#F1871A"/><path d="M48.24 38.3c0 .05-.05.08-.09.1a.75.75 0 0 0-.22.22c-.05.06-.1.12-.1.19-.02.07 0 .16.06.18h.01l.03-.01a.16.16 0 0 1 .08-.06c.08-.02.14.08.22.1h.12c.04.01.07.06.05.1-.05-.05-.28-.07-.32-.1h-.05c-.02.03-.03.08 0 .1l.04.04c.03.07-.08.14-.05.2.02.02.05.02.08.03.05.03.06.1.07.15 0 .06 0 .13.04.17l.06.06c.04.04.05.1.03.15-.04-.01-.05-.06-.07-.09-.02-.02-.05-.02-.07-.03-.04-.03-.06-.08-.06-.13v-.15c-.02-.04-.06-.09-.1-.08l-.08.34c.03.03.09 0 .12.02s.03.07.02.1l-.02.23c-.01.07-.02.15.02.2l.06.06c.03.04.03.1 0 .15l-.01-.01v-.04l-.01-.02c-.05-.04-.12-.07-.12-.13v-.08c.02-.12.03-.25 0-.37-.03-.03-.08 0-.11.03-.04.03-.06.07-.08.11a.75.75 0 0 1-.32.23h-.03l-.08-.02-.03-.02c-.09-.15-.16-.53-.17-.54h-.01c-.04 0-.07.01-.1.03a1.47 1.47 0 0 0-.12.27c0 .05-.02.1-.06.13-.04.03-.08.02-.12.03-.04.01-.09.05-.07.1-.03-.02-.02-.08 0-.1.03-.04.07-.05.1-.07.07-.04.1-.12.13-.2.02-.07.04-.15.08-.22a.15.15 0 0 1 .04-.05l.17-.1.04-.17-.03-.04c-.03 0-.14.18-.23.22l-.11.01c-.04.02-.08.07-.06.1-.02-.02-.02-.08 0-.11a.2.2 0 0 1 .1-.06c.02-.01.05-.02.07-.05a.18.18 0 0 0 .03-.04.92.92 0 0 1 .1-.17c.02-.02.05-.04.07-.03l.1-.09c-.02-.04.04-.07.08-.08.04-.01.02-.1 0-.13v-.03h-.05l-.14.05c-.05-.05-.12-.1-.19-.07.04-.06.13-.08.19-.05l.05.02.06-.01h.07c.04 0 .1 0 .12.04.02.02.02.05.03.07.01.02.03.04.05.04.03 0 .04-.02.05-.05.06-.12.01-.27-.05-.38-.06-.11-.14-.22-.16-.36.05.12.12.22.18.32s.1.23.1.35c.04 0 .05-.05.03-.09.03 0 .04.02.05.04l.04-.03c-.01.01-.04.07 0 .07.02 0 .03-.06.03-.08a.67.67 0 0 1 .42-.4Z" fill="#941732"/><path d="M49.03 39.4c0 .15-.13.27-.3.27-.16 0-.29-.12-.29-.27 0-.16.13-.28.3-.28.16 0 .29.12.29.28Z" fill="#F1871A"/><path d="M49.3 39.01a.35.35 0 0 1 .12-.38.5.5 0 0 1 .04.1c.04-.07.1-.11.17-.15l.01.1c.04-.05.1-.08.14-.12v.11c.04-.05.11-.06.16-.1l-.01.09c.06-.06.15-.07.23-.1-.02.08-.04.17-.1.21l.08.05c-.04.02-.07.05-.12.05a.3.3 0 0 0 .08.07.26.26 0 0 1-.12.03c.03.03.06.06.09.07-.04.03-.07.05-.13.05a.2.2 0 0 0 .1.06l-.15.05v.02l.06.05c-.04.02-.07.05-.13.04l.07.04a.4.4 0 0 1-.2 0 .54.54 0 0 1-.23-.1c-.02-.02-.02 0-.04-.06 0-.02.48-.35.45-.39 0 0-.49.32-.52.3-.04 0-.04-.06-.05-.09Z" fill="#B97414"/><path d="M51.4 13.13c0 .4-.33.72-.74.72a.73.73 0 0 1-.75-.72c0-.4.34-.71.75-.71.4 0 .74.32.74.71Z" fill="#F08082"/><path d="M51.08 13.15c0 .23-.2.41-.43.41a.43.43 0 0 1-.44-.41c0-.23.2-.42.44-.42s.43.19.43.42Z" fill="#E61A5E"/><path d="M50.88 13.14c0 .13-.1.23-.23.23a.23.23 0 0 1-.24-.23.23.23 0 0 1 .47 0Z" fill="#F2E622"/><path d="M64.61 36.98c.15.22.19.53.38.69.2.18.63.3.81.5.07-.01.01-.34-.04-.38-.1-.03-.08-.08-.2-.1-.14-.03-.28-.02-.4-.09-.25-.12-.3-.45-.39-.74.19-.3 0-.54-.14-.91.1.32-.07.33-.06.66-.21-.1-.35-.04-.56-.21-.08.18.5.43.6.58Z" fill="#0E7433"/><path d="M66.42 42.57c0 .23-.2.4-.44.4s-.44-.17-.44-.4.2-.41.44-.41.44.18.44.4Z" fill="#F1871A"/><path d="M64.27 27.26c0 .14-.12.26-.28.26a.27.27 0 0 1-.27-.26c0-.15.12-.27.27-.27.16 0 .28.12.28.27Z" fill="#E5173D"/><path d="M60.2 18.94c0 .94-.77 1.7-1.72 1.7s-1.72-.76-1.72-1.7.77-1.7 1.72-1.7 1.73.76 1.73 1.7Z" fill="#E61A5E"/><path d="M59.07 18.86c0 .38-.3.68-.67.68a.67.67 0 0 1-.67-.68.67.67 0 0 1 .78-.66c.31.05.56.33.56.66Z" fill="#F29495"/><path d="M58.32 17.67c0-.03 0-.07.02-.09.02-.02.05-.03.08-.03h.04l.03.06c.03.21 0 .42-.05.62h-.05l-.01-.06-.03-.17a1.93 1.93 0 0 1-.03-.33ZM58.08 17.7v-.1c.02-.02.06-.03.09-.03h.04l.03.04c.06.2.06.41.06.62h-.06l-.02-.05-.06-.16c-.03-.1-.07-.21-.08-.32ZM57.84 17.82c0-.03-.02-.06 0-.08 0-.04.03-.05.06-.07h.04c.02 0 .03.02.04.03.1.18.15.39.19.59 0 0-.05.02-.06.01l-.03-.04-.09-.14-.15-.3ZM57.64 17.97c-.01-.02-.03-.05-.02-.08 0-.03.03-.05.06-.07l.03-.02c.02 0 .04.01.05.03.13.15.21.35.29.54 0 0-.05.03-.06.02l-.03-.03a6.84 6.84 0 0 0-.11-.13 1.66 1.66 0 0 1-.2-.26ZM57.49 18.15c-.02-.02-.04-.05-.04-.08s.02-.06.04-.08l.04-.03.05.02c.16.13.26.31.37.48l-.05.04-.04-.03-.13-.1a1.82 1.82 0 0 1-.24-.22ZM57.36 18.4l-.06-.07c0-.04.01-.07.03-.1l.02-.03h.06c.18.1.32.24.46.39l-.04.04-.05-.02-.14-.06c-.1-.05-.2-.1-.28-.16ZM57.27 18.72c-.03 0-.06-.02-.08-.04-.02-.02-.01-.06-.01-.1l.01-.04.06-.01c.2 0 .38.07.56.14 0 0 0 .06-.02.06H57.58l-.31-.01ZM57.28 18.96c-.02 0-.05 0-.07-.02-.03-.03-.03-.06-.03-.1v-.04c.01-.02.04-.02.05-.03.2-.03.4 0 .58.04v.06l-.05.02c-.06 0-.1.02-.16.03-.1.02-.21.04-.32.04ZM57.36 19.22c-.03.01-.06.02-.08 0-.03-.02-.04-.05-.05-.08v-.05c0-.01.02-.03.04-.03.18-.08.38-.1.57-.1v.06l-.04.02-.14.07c-.1.05-.2.09-.3.11ZM59.46 18.46c.03-.01.06-.03.07-.05l-.01-.1-.03-.03h-.05a1.8 1.8 0 0 0-.51.3l.03.04.05-.01.15-.04c.1-.03.2-.06.3-.11ZM59.5 18.69c.03 0 .06-.02.07-.04.02-.03.01-.07 0-.1v-.03c-.02-.02-.04-.02-.06-.02-.2.03-.38.12-.55.2l.02.06h.05l.16-.02c.1 0 .21-.02.31-.05ZM59.49 18.96c.02 0 .05 0 .07-.03.03-.02.03-.06.03-.09v-.04c-.01-.02-.04-.02-.06-.02-.19-.03-.38.02-.57.06v.06l.06.01.15.03.32.02ZM59.44 19.2h.08c.02-.02.03-.06.04-.09v-.04l-.05-.04a1.65 1.65 0 0 0-.57-.04v.06c0 .02.03.02.04.02l.15.06c.1.03.2.06.3.07ZM59.34 19.42c.03 0 .06.02.08 0 .03-.01.05-.04.06-.07v-.04c0-.02-.02-.04-.03-.05a1.62 1.62 0 0 0-.56-.14v.06l.03.03.14.08c.1.05.18.1.28.13ZM59.19 19.64c.02.02.05.03.08.02.03 0 .05-.03.07-.06l.01-.04c0-.02-.01-.03-.03-.05-.14-.13-.32-.2-.5-.27l-.03.06.04.03.11.11c.08.08.16.15.25.2ZM58.95 19.86c.01.02.03.05.06.05.03.01.06 0 .08-.02l.03-.03v-.06c-.08-.18-.22-.32-.35-.46l-.05.04.02.05.06.15c.04.1.09.2.15.28ZM58.73 19.94l.05.07c.03 0 .06 0 .1-.02 0 0 .02 0 .03-.02v-.06a1.7 1.7 0 0 0-.26-.52l-.05.03v.06l.04.15c.02.11.05.21.1.31ZM58.47 19.98c0 .03.02.06.04.08h.13l.01-.07c0-.2-.07-.38-.14-.57l-.05.02V19.66l.01.32ZM59.37 18.22l.05-.07-.03-.09-.02-.03-.06.01c-.17.1-.3.26-.44.4l.04.05.05-.02.14-.08c.1-.05.19-.1.27-.17ZM58.98 17.8c0-.03.02-.06 0-.09 0-.03-.04-.04-.07-.05l-.03-.01c-.02 0-.04.02-.04.04a2 2 0 0 0-.15.6l.05.01c.02 0 .02-.03.03-.04l.08-.15c.05-.1.1-.2.13-.31ZM59.16 17.93c.02-.03.03-.06.02-.09 0-.03-.03-.05-.06-.07l-.03-.01c-.02 0-.04.02-.05.04-.12.16-.18.36-.24.56l.05.02.04-.04.1-.13.17-.28ZM58.75 17.7l-.01-.08c-.02-.03-.05-.04-.08-.04h-.04c-.02.01-.03.03-.03.05-.05.2-.04.42-.03.62h.06l.02-.05.04-.16c.03-.11.06-.22.07-.34ZM58.4 19.95c0 .03 0 .07-.03.09-.03.02-.06.02-.1.02h-.04l-.02-.07c0-.21.05-.43.12-.63h.05c.01.02 0 .05 0 .07l.02.17v.35ZM58.13 19.95c0 .03-.02.06-.05.07-.03.02-.06.01-.1 0l-.03-.01c-.01-.02-.01-.04 0-.07.03-.2.13-.4.23-.6l.06.02v.06l-.03.18a2.1 2.1 0 0 1-.08.35ZM57.6 19.7l-.09.03c-.03 0-.06-.03-.08-.05l-.02-.04c0-.02.01-.04.03-.05.15-.16.34-.27.53-.38l.03.05c0 .02-.03.04-.04.05l-.11.13c-.08.1-.16.18-.26.25ZM57.78 19.84l-.08.05c-.03 0-.06-.02-.08-.04l-.03-.03c0-.02 0-.04.02-.06.12-.18.3-.32.47-.46l.03.05-.03.05-.09.15c-.06.1-.13.2-.21.29ZM57.42 19.5c-.03 0-.06.02-.09.01-.03 0-.05-.04-.06-.07l-.01-.04c0-.02.02-.04.04-.05.18-.12.39-.19.59-.25l.02.06-.05.03-.14.11-.3.2Z" fill="#F29495"/><path d="M58.79 18.84a.4.4 0 0 1-.4.4.4.4 0 0 1-.41-.4.4.4 0 0 1 .8 0Z" fill="#F1871A"/><path d="M58.57 18.82a.18.18 0 1 1-.36 0c0-.1.08-.18.18-.18.1 0 .18.08.18.18Z" fill="#75C8DB"/><path d="M57.87 20.75a.6.6 0 0 1 .11.59.58.58 0 0 1-.1-.09c0 .13-.02.23-.08.35a1.33 1.33 0 0 1-.08-.13c0 .1-.04.2-.06.29a.93.93 0 0 1-.09-.15c0 .1-.06.19-.09.28l-.05-.12c-.03.12-.1.22-.18.33-.03-.12-.06-.24-.02-.37a.44.44 0 0 0-.12.03c.02-.06.03-.13.1-.17a.28.28 0 0 0-.14-.02l.1-.14a.21.21 0 0 0-.14-.01c.03-.07.05-.13.12-.18a.2.2 0 0 0-.15.02l.12-.2v-.02h-.11c.03-.07.05-.14.12-.18a.11.11 0 0 0-.1.01.55.55 0 0 1 .22-.17c.1-.05.2-.1.3-.09.04 0 .07 0 .13.06.02.02-.08.3-.07.3 0 .01.1-.26.15-.29.04-.02.07.04.11.07ZM59.77 20.5c.17.05.31.22.35.42a.47.47 0 0 1-.1-.03c.05.1.08.2.1.32a1.12 1.12 0 0 1-.12-.07c.04.08.05.17.08.26a.94.94 0 0 1-.13-.08c.05.08.04.18.07.26l-.1-.07c.04.1.03.23.03.34-.08-.08-.16-.16-.19-.28a.3.3 0 0 0-.07.08c-.02-.06-.04-.12-.02-.18a.22.22 0 0 0-.1.04.4.4 0 0 1 0-.16.18.18 0 0 0-.1.05c-.01-.06-.02-.12 0-.19a.16.16 0 0 0-.1.08V21.06h-.02a.27.27 0 0 0-.07.04c0-.06-.02-.12 0-.19a.1.1 0 0 0-.07.06.5.5 0 0 1 .08-.24c.05-.08.1-.16.18-.2.03-.02.06-.04.12-.02.03 0 .07.18.08.18 0 0-.03-.16-.01-.2.02-.04.07 0 .11 0Z" fill="#0E7433"/><path d="M54.3 8.56c.12-.12.11-.34 0-.46-.03-.03-.06-.05-.07-.08-.07-.12.12-.27.05-.4l-.03-.02c-.02 0-.05.02-.06.04-.04.07-.08.13-.1.2a3.12 3.12 0 0 0-.12-.36c-.03.1-.05.2-.05.3a.9.9 0 0 0-.25-.21c.02.11.06.22.12.32-.12.15-.09.4.07.52l.07.05c.07.06.08.18.16.22.1.05.14-.06.2-.12Z" fill="#E5173D"/><path d="M60.99 28.9c0-.14.06-.16.06-.16s.37-.55 1.2-.57c.36.02.53-.31.55-.35.01-.03.04-.3.1-.33l.07-.03H63s-.06.03-.05.04l.1-.02-.08.06.08.01-.07.04s.07.04.06.05h-.09l.08.07h-.09l.09.06-.1.02s.1.01.1.03l-.08.03s.07.03.07.05h-.06l.07.07-.09-.01s.08.06.07.07l-.09-.02.09.07-.12-.02s.1.09.08.1l-.12-.05.07.1-.1-.03s.06.06.05.07l-.09-.02s.05.06.04.07l-.08-.05v.05l-.12-.02s.03.1.24.04c.15-.06.26-.33.26-.39.01-.05.09-.08.09-.08l-.03.06.07-.02-.06.05.1-.02-.09.07s.08-.03.09-.02l-.08.05h.1l-.08.04h.08l-.08.03.08.02-.1.02.1.02-.1.02.11.04h-.13l.1.06-.13.01.13.03-.1.02.08.04-.1-.02.1.06h-.1l.09.05h-.13l.1.07-.1-.02.07.06-.1-.03s.07.06.06.07l-.1-.04.09.07-.14-.02.09.07-.13-.04.06.1-.1-.07.05.1-.1-.07.01.08-.05-.09-.01.1-.07-.12.02.11-.1-.05s.06.16.3.08l.21-.15.1.04h-.09l.07.04h-.07l.06.03h-.08l.06.04h-.08l.07.06-.1-.03s.09.06.08.07l-.1-.02.06.07-.1-.04.06.09-.1-.06.06.1-.11-.08.06.1-.11-.07.06.09-.1-.06.05.1-.1-.09.03.09-.06-.08.02.1-.07-.1v.09l-.06-.1v.1s-.06-.12-.08-.1c0 .42-.71.38-.71.38s-.8-.02-.9-.45c0 0 .3.25.8.29-.02 0 0-.03-.03-.03-.22-.03-.77-.22-.77-.35" fill="#E61A5E"/><path d="M61.94 28.8a.13.13 0 0 1-.14.12.13.13 0 0 1 .03-.26c.07 0 .12.07.11.15Z" fill="#fff"/><path d="M61.89 28.8c0 .05-.05.08-.09.07a.08.08 0 0 1-.06-.09c0-.04.04-.07.08-.06.04 0 .07.04.07.08ZM62.04 28.16c.02-.08.1-.13.1-.18.02-.32.17-.3.17-.3l-.04.05.08-.03-.06.07.07-.03c0 .02-.06.06-.06.06s.05 0 .05.02l-.05.02.06.02h-.07l.07.03-.08.02.07.03-.07.01.08.03-.09.02s.08.02.07.03h-.09s.09.02.08.03h-.1l.09.04-.05.02h.05l-.28.04ZM63.4 28.07c1.44-.02 2.06.73 2.3.84.25.08 1.3 1.52 1.3 2.66.01 1.18 1.08 1.32 1.01 1.5 0 .03-1.43-.7-1.44-1.24-.04-1.25-1.09-1.7-1.09-1.7-.01-.03-.2-.05-.2-.05-.04.07.06.43.05.45-.02.07-.5.07-.6.05-.03 0 .06-.05.05-.07h-.1c-.02 0 .13-.04.12-.05a3.64 3.64 0 0 0 .25-.02s-.17-.33-.12-.42c0 0-.18-.05-.5-.01-.01-.02 0 .04-.05.24-.05.2-.21.16-.21.16l-.2.04c-.02-.01.02-.07.02-.07s-.22.07-.24.05c-.01-.01.06-.05.06-.05h-.2l.07-.05-.09-.03s0-.03.1-.04c.17-.02.42.08.42-.25a2.7 2.7 0 0 1-.74-.08s-.1.27-.24.4c-.07.08.03.15-.03.19-.08.05-.11-.12-.26-.04-.1.07-.14.12-.16.08-.01-.02.03-.09.01-.1-.06-.06-.3.01-.35 0-.04 0 .1-.07.07-.07-.06 0-.12 0-.14-.02-.01-.01 0-.06.41-.07.2 0 .38-.46.36-.45-.08.05-.25-.12-.28-.09l-.65.45c-.03 0-.02.11-.08.07-.19-.13-.36 0-.44-.02-.04-.02.07-.07.03-.08-.1-.03-.31 0-.31 0s.05-.02.07-.05c0 0-.13 0-.1-.03a.78.78 0 0 1 .4-.05c.15.01.2-.05.2-.05l.57-.4c.03-.03-.3-.13-.3-.13s.35-.02.52-.26c.07.12.96-.18.59-.59-.13-.14.26-.25.14-.55Z" fill="#E61A5E"/><path d="M66.19 31.93c.01-.1-.01-.11-.01-.11s-.13-.4-.6-.56c-.2-.04-.25-.28-.26-.3 0-.03.03-.2 0-.23a.15.15 0 0 0-.04-.04l.01.04-.05-.03.03.05h-.04l.03.03-.04.02.05.02-.05.03.05.01-.07.03.05.02h-.05c0 .02.04.04.04.04s-.05 0-.05.02l.03.02-.05.03h.05l-.05.03h.06l-.07.04h.08l-.07.05.08-.01-.06.06h.07l-.04.02h.05l-.03.04.05-.01v.03h.07s-.04.07-.15 0c-.07-.07-.09-.26-.09-.3 0-.03-.03-.06-.03-.06v.05l-.03-.03.02.04-.05-.03.04.06-.05-.02.04.04L65 31l.04.04H65l.04.02H65l.04.03h-.05l.05.03h-.07l.08.03-.07.01.07.03h-.08l.05.03-.05.01h.07l-.07.03.06.01-.06.02.07.02-.07.03h.07l-.05.03h.06l-.05.03h.07l-.07.02.09.01-.07.03h.08l-.05.05.07-.03-.04.05.07-.02-.02.05.05-.05-.02.07.06-.07-.03.07.07-.02s-.06.1-.19 0a.91.91 0 0 0-.1-.12h-.05l.04.02-.04.01.04.01-.04.01.05.02-.05.01.05.01-.05.03h.07l-.07.03h.07l-.05.04h.06l-.04.04.06-.02-.05.05.08-.03-.05.05.07-.03-.05.05.07-.02-.05.06.07-.04-.02.05.05-.04-.03.05.05-.04-.01.05.05-.05-.02.07s.06-.08.06-.06c-.06.27.35.36.35.36s.46.11.59-.14c0 0-.21.1-.5.05l.02-.01c.13.02.48-.01.5-.1" fill="#CC4090"/><path d="M65.66 31.74c-.01.05.02.1.07.1s.09-.03.1-.08c0-.04-.03-.09-.08-.1a.08.08 0 0 0-.1.08Z" fill="#fff"/><path d="M65.69 31.75c0 .03.01.05.04.06.03 0 .06-.02.06-.05a.06.06 0 0 0-.05-.06.05.05 0 0 0-.05.05ZM65.7 31.29c0-.05-.03-.1-.03-.13.04-.2-.04-.22-.05-.22l.02.04-.04-.03.02.05-.03-.02.02.04h-.03l.03.03h-.04l.04.01h-.04l.04.03h-.05l.04.03h-.05l.05.03h-.05l.05.02h-.05l.06.03h-.05l.02.02h-.03l.15.07ZM64.94 31c-1.1-.16-1.44-.09-1.65-.11-.15 0-1.1-.28-1.7-.13-.75.2-.9.55-.88.68 0 .01.42-.24 1.09-.29.57-.13 1.54.61 1.54.61.01-.01.2.22.2.22 0 .05-.11.26-.11.28 0 .04.27.12.34.12.01 0-.03-.04-.02-.05l.06.02-.06-.05h.04l-.19-.06s.16-.18.15-.24c0 0 .1 0 .29.07l-.01.16c0 .13.09.14.09.14l.1.05c.02 0 0-.04 0-.04s.12.08.13.07c.02 0-.02-.04-.02-.04l.11.03-.03-.05h.06s0-.02-.05-.04c-.1-.04-.25-.02-.2-.23.19.07.43.07.43.07s.03.19.08.3c.03.05-.04.09-.02.12.05.04.09-.06.16.01.05.07.07.1.08.08v-.06c.05-.03.18.05.21.06.02 0-.04-.07-.02-.06h.08s0-.03-.23-.1c-.11-.03-.14-.35-.13-.34.03.04.16-.04.17-.01l.3.38c.02.01 0 .08.04.06.13-.05.2.06.25.06.03 0-.03-.06 0-.06.06 0 .18.06.18.06s-.03-.02-.04-.05c0 0 .08.02.07 0-.03-.04-.13-.08-.23-.1-.08-.01-.1-.06-.1-.06l-.26-.35c-.02-.02.19-.03.19-.03s-.2-.07-.26-.25c-.06.07-.52-.27-.24-.47.1-.06-.11-.2 0-.37Z" fill="#CC4090"/><path d="M61.38 32.74c.04-.1-.05-.18-.12-.25a.42.42 0 0 1-.1-.38.32.32 0 0 1 .3-.24c.08 0 .16.04.24.05.26.04.54-.15.76-.02a.3.3 0 0 1 .13.38c-.08.16-.3.25-.32.43.2-.03.32-.26.52-.25.1 0 .18.06.24.14.05.09.07.18.1.28.01.1.02.2 0 .3-.03.1-.1.19-.2.22-.1.02-.23-.02-.31.05.1.07.23.15.26.27.03.13-.05.25-.14.35-.1.1-.2.17-.3.25-.11.07-.27.13-.37.04-.1-.1-.07-.27-.13-.4a.6.6 0 0 1-.53.47.63.63 0 0 1-.61-.37c-.05-.11-.05-.28.06-.35.08-.06.2-.06.23-.15-.18 0-.4 0-.51-.14-.14-.16-.07-.42.06-.6.08-.12.23-.25.38-.2.07.03.12.1.2.13.07.04.18.03.2-.05m.43.12a.4.4 0 0 0-.4.39c0 .22.18.4.4.4a.4.4 0 0 0 .4-.4.4.4 0 0 0-.4-.4Z" fill="#F8D000"/><path d="M66.81 34.55c0 .78-.65 1.41-1.46 1.41-.8 0-1.46-.63-1.46-1.4 0-.79.65-1.42 1.46-1.42.8 0 1.46.63 1.46 1.41Z" fill="#E61A5E"/><path d="M65.73 34.44a.53.53 0 1 1-1.06 0 .53.53 0 0 1 .61-.53c.25.04.45.26.45.53Z" fill="#F29495"/><path d="M65.13 33.48c0-.02 0-.04.02-.06.01-.02.04-.02.06-.02h.04l.01.05c.03.16 0 .32-.03.48h-.04l-.01-.04-.03-.14a1.5 1.5 0 0 1-.02-.27ZM64.94 33.51c0-.02-.01-.05 0-.07.02-.02.04-.03.07-.03h.03l.03.04c.04.15.04.32.04.49h-.04l-.02-.04-.05-.13a1.39 1.39 0 0 1-.06-.26ZM64.75 33.6c0-.01-.02-.04 0-.06 0-.02.03-.04.05-.05h.03c.02 0 .03.01.03.03.09.13.12.3.15.46l-.04.01-.03-.03-.07-.12a1.52 1.52 0 0 1-.12-.23ZM64.6 33.73c-.02-.02-.03-.04-.03-.07 0-.02.03-.04.05-.06l.03-.01.04.02c.1.13.16.28.22.43l-.04.03-.03-.03a9.15 9.15 0 0 0-.25-.31ZM64.47 33.87c-.02-.01-.03-.04-.03-.06l.03-.07.03-.01.04.01c.12.1.2.24.3.38l-.05.03-.03-.02a4.02 4.02 0 0 1-.3-.26ZM64.36 34.06l-.04-.05.02-.07.02-.03h.05c.14.08.26.2.37.3l-.03.04-.04-.01-.12-.05a1.37 1.37 0 0 1-.23-.13ZM64.3 34.32c-.03 0-.06 0-.07-.03-.01-.02-.01-.05 0-.07v-.04l.05-.01c.15 0 .3.06.44.12v.04h-.43ZM64.3 34.52c-.02 0-.04 0-.06-.02-.02-.02-.02-.05-.02-.08v-.03l.05-.02c.15-.03.3 0 .46.03v.05h-.05l-.12.04-.25.03ZM64.37 34.73h-.07l-.04-.07v-.03c0-.02.02-.03.04-.03.14-.07.3-.08.45-.08v.04l-.03.02-.12.06c-.07.03-.15.07-.23.09ZM66.04 34.12l.05-.05c.01-.02 0-.05 0-.07l-.02-.03h-.05a1.4 1.4 0 0 0-.4.24l.02.04.04-.01.12-.04c.08-.02.16-.04.24-.08ZM66.07 34.3l.06-.03v-.08l-.01-.03h-.04c-.16.01-.3.08-.44.15l.01.04H65.82l.25-.05ZM66.06 34.51c.02 0 .05 0 .06-.02.02-.02.02-.04.02-.07v-.03c-.01-.02-.03-.02-.04-.02-.16-.02-.3.02-.46.05v.05h.05l.12.03c.08 0 .17.02.25.01ZM66.02 34.71h.06c.02-.02.03-.05.03-.08v-.03l-.03-.02c-.15-.05-.3-.04-.46-.04v.05l.04.02.12.04c.07.03.15.05.24.06ZM65.95 34.88c.02 0 .04.02.06 0 .02 0 .03-.03.04-.05l.01-.04-.03-.03c-.14-.07-.29-.1-.44-.11l-.01.04.03.02.11.07c.07.04.15.08.23.1ZM65.82 35.06c.02 0 .04.02.07.01.02 0 .04-.02.05-.04l.01-.03c0-.02 0-.03-.02-.04-.11-.1-.26-.16-.4-.22l-.02.05.03.02.09.1.2.15ZM65.63 35.23l.05.05.07-.03.02-.02v-.05a1.35 1.35 0 0 0-.29-.36l-.03.03.01.04.05.12c.03.07.07.15.12.22ZM65.46 35.3c0 .02.02.04.04.05l.07-.01s.02 0 .03-.02v-.05c-.04-.15-.12-.28-.2-.41l-.05.02v.04l.03.13c.02.08.04.17.08.25ZM65.25 35.33c0 .02.01.05.03.06.02.01.05.01.07 0h.03l.02-.05c0-.16-.06-.31-.11-.46l-.05.02v.17l.01.26ZM65.97 33.92l.04-.05c0-.02-.01-.05-.03-.07 0-.01 0-.02-.02-.02h-.04c-.14.08-.25.2-.35.33l.03.03.04-.02a3 3 0 0 0 .33-.2ZM65.65 33.6c.01-.03.02-.05 0-.08 0-.02-.02-.03-.05-.04h-.03l-.03.03c-.07.14-.1.31-.12.47 0 .01.04.02.05.01l.02-.04.06-.11c.04-.08.08-.16.1-.25ZM65.8 33.7l.02-.07c0-.03-.03-.04-.05-.06h-.03c-.01 0-.03 0-.04.02-.09.13-.14.29-.19.45l.04.01.03-.03.08-.1.14-.23ZM65.47 33.52v-.07c-.02-.02-.05-.03-.07-.03h-.03c-.02 0-.02.02-.03.04-.04.16-.03.33-.02.49h.05l.01-.04.04-.13.05-.26ZM65.2 35.3c0 .03-.01.06-.03.08l-.08.01h-.03l-.01-.05c-.01-.17.04-.34.08-.5h.05v.05l.01.14c.01.1.01.18 0 .28ZM64.98 35.3c0 .02-.02.05-.04.06-.02.02-.05.01-.07 0h-.03c-.02-.02-.01-.04-.01-.06.03-.17.11-.33.2-.48l.04.02-.01.05-.02.13c-.01.1-.03.2-.06.28ZM64.55 35.1l-.06.03c-.03 0-.05-.02-.07-.04l-.01-.03c0-.02 0-.03.02-.05.12-.12.27-.21.42-.3l.02.05-.02.03-.1.11-.2.2ZM64.7 35.21c-.02.02-.04.04-.06.04-.03 0-.05 0-.07-.03l-.02-.02.01-.05c.1-.14.24-.25.37-.36l.03.03-.02.04-.08.13-.16.22ZM64.42 34.94c-.03.01-.05.02-.08.01-.02 0-.03-.03-.05-.05v-.03c0-.02.01-.03.03-.04.14-.1.3-.15.47-.2l.01.04c0 .02-.02.02-.03.03l-.12.09c-.07.06-.15.1-.23.15Z" fill="#F29495"/><path d="M65.5 34.42c0 .17-.14.31-.32.31a.32.32 0 0 1-.32-.31c0-.18.14-.32.32-.32s.32.14.32.32Z" fill="#E83581"/><path d="M65.33 34.4a.14.14 0 1 1-.29 0 .14.14 0 0 1 .3 0Z" fill="#F2E622"/><path d="M63.5 42.75c-2.48-.71-3.7-2.8-3.7-2.8.38.2.78.11.98.16 3.32.7 2.72 2.64 2.72 2.64Z" fill="#708C51"/><path d="M63.77 42.76c2.8-1.12 3.55-2.86 3.7-2.84-.17.14-.51.08-.51.08-3.67.66-3.19 2.76-3.19 2.76Z" fill="#708C51"/><path d="M64.63 40.58c1.42-.8 1.16-.47 1.2-.54a5.6 5.6 0 0 0 .71-2.21c-.05-.14 0-.22 0-.22-1.5.82-1.88 1.62-1.88 1.62.15.3-.09 1.36-.09 1.36M62.63 40.62c-.23-1.6-.01-1.3-.06-1.36-1.23-1.53-1.97-1.62-1.97-1.62.06.08.02.25.04.36.18 1.42.72 2.02.72 2.02.35-.02 1.27.6 1.27.6ZM63.61 41.87c.06-.28.51-1.16.69-1.29.26-1.74-.18-3.7-.72-4.28-1 1.45-.66 3.38-.7 4.28 0 0 .78 1.23.73 1.3" fill="#708C51"/><path d="M42.1 22.9c-.2.14-.17 5.03 1.39 5.15 2.06.16.17-4.64-1.08-5.26 0 0-.04-.06-.3.1Z" fill="#F8D000"/><path d="m44.45 26.62-.05.01c.02.09.01.16-.04.22a.65.65 0 0 1-.32.18c.02-.18 0-.39-.04-.62a.6.6 0 0 0 .28-.18.27.27 0 0 0 .05-.26l-.05.02c.02.08 0 .15-.04.21a.58.58 0 0 1-.25.16c-.04-.2-.1-.41-.18-.64a.6.6 0 0 0 .25-.16.28.28 0 0 0 .05-.26l-.05.01c.02.08.01.16-.04.22a.52.52 0 0 1-.22.14l-.23-.6a.49.49 0 0 0 .16-.11.28.28 0 0 0 .05-.28l-.05.01c.03.1.01.17-.04.23a.41.41 0 0 1-.14.1l-.21-.47-.03-.06a.5.5 0 0 0 .2-.13c.07-.08.1-.17.06-.29l-.05.02c.03.1.02.17-.04.24a.45.45 0 0 1-.2.11c-.1-.22-.2-.43-.31-.62.1-.03.2-.08.24-.14.04-.04.05-.1.03-.16l-.05.02c.02.04 0 .08-.02.11a.45.45 0 0 1-.22.13l-.18-.34c.09-.02.17-.06.2-.11a.13.13 0 0 0 .02-.11h-.04c0 .03 0 .06-.02.08-.03.04-.1.08-.19.1-.22-.4-.38-.65-.39-.66l-.04.03s.17.26.38.64l-.22.04-.19-.65-.05.01.19.65-.17.02-.06-.66h-.05l.06.66h-.18v.05h.19l.03.33H42v.05h.25l.07.6-.25-.03v.05l.25.03.08.57-.23-.01v.05l.24.02.1.6h-.2v.05h.21l.13.65h-.18v.04h.2c.04.22.1.4.15.58l-.14-.01v.05h.15c.13.37.27.6.44.6v-.05c-.14 0-.27-.2-.39-.54a5.92 5.92 0 0 0 .59 0l.14.52a.8.8 0 0 1-.1.04l.01.05a.81.81 0 0 0 .1-.04l.02.05.05-.01-.02-.07a.7.7 0 0 0 .32-.37c.03-.08.04-.16.06-.25a.7.7 0 0 0 .35-.2.28.28 0 0 0 .06-.26m-.52-.25c-.18.06-.4.1-.62.1l-.18-.63c.22-.01.45-.05.63-.1.07.21.13.43.17.63Zm-.19-.68c-.18.06-.4.09-.63.1l-.17-.6c.2-.01.41-.04.57-.1.09.2.16.4.23.6Zm-.25-.65c-.15.06-.36.1-.56.1l-.16-.57c.17 0 .34-.02.48-.06.08.17.17.35.24.53Zm-.26-.58c-.14.04-.3.06-.48.06l-.17-.63c.11-.01.23-.03.33-.06l.32.63Zm-.52-1 .18.33-.33.05-.1-.34c.09 0 .17-.02.25-.04Zm-.47.07.17-.02.1.33-.23.02-.04-.33Zm.04.38c.08 0 .16 0 .24-.02l.18.63h-.35l-.07-.61Zm.08.65.3.01h.06l.16.57h-.44l-.08-.58Zm.09.63h.45l.16.6c-.19.02-.37.02-.51.01l-.1-.6Zm.1.67h.16l.37-.01.18.63c-.22.02-.43.02-.58.02l-.12-.64Zm.3 1.25a6.9 6.9 0 0 1-.15-.56h.13c.13 0 .28 0 .44-.02l.17.58h-.59Zm1.07.2a.66.66 0 0 1-.28.35l-.14-.5c.17-.01.33-.03.48-.07a.89.89 0 0 1-.06.22Zm.06-.27c-.15.03-.32.06-.5.07l-.16-.58c.22-.02.44-.05.62-.11.04.22.06.44.04.62Z" fill="#fff"/><path d="M42.92 27.83c.62.5 1.3.63 1.3.63l-.04-.44s-1.05-.71-1.37-1.14a2.72 2.72 0 0 1-.39-1.88c.07-.48-.72-1.44-.7-1.42.26.26.3 3.53 1.2 4.25Z" fill="#708C51"/><path d="M43.63 27.73s.6-1 .27-2.1c-.32-1.08-.4-1.72-.4-1.72.34.65.68 1.48.82 1.81.14.34.18.72.24.7.05 0 .12.85 0 1.28-.13.43-.2.47-.2.47l-.73-.44Z" fill="#708C51"/><path d="M44.16 27.87c-.85-.75-2.02-1.89-2.7-1.69-.66.2-.31 1.15-1.45 1.19 0 .08.37.23.57.12.62-.33.74-.3.86-.36.52-.28 1 .35 1 .35.47.39 1.22.9 1.4 1.08.09.1.27.21.27.21l1.78.9c-.9-.65-.08-1.87-.08-1.87s-1.2.32-1.65.07Z" fill="#0E7433"/><path d="m61.05 46.35-5.52-2.85-6.16-.28-4.02-2.8-1.64-4.45-.25-1.9-.77-.24.1-.68-.55.05-.4-.65-.86-.47-.25-2.12-1.1-.18-.23-.99.46-1.05-.18-.99 1.88-2.42-.1-1.36 2.2-2.02.79.07.31-.5h.5l.12-.49.4-.02.36-.74h.29L46.4 19l2.37-1.17-.16-1.37.35-.33.05-.52.42-.5.15-.45-.83-.47.85-3.2.93-.46 1.3.44.15-.27-.65-.93.51-.63.98-.05.23-.3-.43-.76.6-1.1.59-.22 1.13-1.96 1.28.09 1.09 2.63-1.5 2.17.18 1.04.34.22.48-.1.91-.27 2.62 1.28-.25.95 1.7 3.5-.76 1.74.13 1.34 1.65.85 2.77 1.27v1.05l2.61 2.9-.83 1.22-.5 2.61.6 1.13.04 1.31 1.84.33.03.97-.44.75-.83.07-.37-.1v.49l-.25 1.04.9.5v1.34l-.2.26.57.33-.99 1 .25.57-.56 4.27-1 1.15-1.33-.84-2.05-.44-.74.58-1.3 2.4Zm-11.56-3.46 6.12.28.04.01 5.26 2.72 1.17-2.17.92-.71 2.26.48 1.14.71.74-.86.54-4.07-.3-.7.84-.85-.52-.3.35-.48v-1.03l-.94-.52.3-1.25v-.88l.73.19.6-.05.3-.52-.01-.6-1.84-.33-.05-1.5-.6-1.17.51-2.79.73-1.07-2.52-2.79v-.96l-2.59-1.2-1.81-.92-.16-1.62.73-1.68-1.68-3.47.2-.8-2.25-1.1-.8.23-.63.13-.57-.38-.22-1.31 1.46-2.13L56 5.15l-.86-.06-1.09 1.88-.58.23-.45.82.44.79-.46.6-.98.05-.26.32.62.9-.39.69-1.43-.48-.67.32-.74 2.81.85.49-.26.77-.4.46-.05.54-.32.3.17 1.44-2.39 1.17.03.41h-.44l-.36.72-.33.02-.12.51h-.59l-.32.51-.85-.07-1.96 1.81.1 1.33-1.88 2.4.17.94-.45 1.05.15.67 1.13.17.26 2.2.79.44.34.55.77-.07-.13.82.7.21.27 2.08 1.6 4.31 3.86 2.7Z" fill="#DE80B3"/></svg>